<mxfile host="Electron" modified="2024-06-06T14:49:43.288Z" agent="Mozilla/5.0 (Macintosh; Intel Mac OS X 10_15_7) AppleWebKit/537.36 (KHTML, like Gecko) draw.io/24.4.0 Chrome/120.0.6099.109 Electron/28.1.0 Safari/537.36" etag="YEtT4qxagTRa8WHWxSfL" version="24.4.0" type="device" pages="3">
  <diagram id="xzcP4nnKtCmfgjY5nbbz" name="abstraction">
    <mxGraphModel dx="1434" dy="854" grid="1" gridSize="10" guides="1" tooltips="1" connect="1" arrows="1" fold="1" page="1" pageScale="1" pageWidth="827" pageHeight="1169" math="0" shadow="0">
      <root>
        <mxCell id="dMxsjKUCfSVT_WvYJcaO-0" />
        <mxCell id="dMxsjKUCfSVT_WvYJcaO-1" parent="dMxsjKUCfSVT_WvYJcaO-0" />
        <mxCell id="dMxsjKUCfSVT_WvYJcaO-2" value="" style="endArrow=oval;html=1;startArrow=oval;startFill=1;endFill=1;strokeWidth=1;fontSize=13;fillColor=#d5e8d4;strokeColor=#82b366;" parent="dMxsjKUCfSVT_WvYJcaO-1" edge="1">
          <mxGeometry width="50" height="50" relative="1" as="geometry">
            <mxPoint x="62" y="540.0000000000005" as="sourcePoint" />
            <mxPoint x="736" y="540.0000000000005" as="targetPoint" />
          </mxGeometry>
        </mxCell>
        <mxCell id="dMxsjKUCfSVT_WvYJcaO-3" value="Volume&lt;br&gt;" style="edgeLabel;html=1;align=center;verticalAlign=middle;resizable=0;points=[];labelPosition=center;verticalLabelPosition=middle;fontSize=15;labelBackgroundColor=#FFFFFF;" parent="dMxsjKUCfSVT_WvYJcaO-2" vertex="1" connectable="0">
          <mxGeometry x="0.8389" y="2" relative="1" as="geometry">
            <mxPoint x="-142" y="72" as="offset" />
          </mxGeometry>
        </mxCell>
        <mxCell id="dMxsjKUCfSVT_WvYJcaO-4" value="&lt;font style=&quot;font-size: 15px&quot;&gt;Network&lt;/font&gt;" style="edgeLabel;html=1;align=center;verticalAlign=middle;resizable=0;points=[];labelPosition=center;verticalLabelPosition=middle;fontSize=16;" parent="dMxsjKUCfSVT_WvYJcaO-2" vertex="1" connectable="0">
          <mxGeometry x="0.8389" y="2" relative="1" as="geometry">
            <mxPoint x="98" y="-238" as="offset" />
          </mxGeometry>
        </mxCell>
        <mxCell id="sM68YDgqJwR2TVpxMyUJ-1" value="&lt;font style=&quot;font-size: 15px&quot;&gt;Prometheus&lt;/font&gt;" style="edgeLabel;html=1;align=center;verticalAlign=middle;resizable=0;points=[];labelPosition=center;verticalLabelPosition=middle;fontSize=16;" parent="dMxsjKUCfSVT_WvYJcaO-2" vertex="1" connectable="0">
          <mxGeometry x="0.8389" y="2" relative="1" as="geometry">
            <mxPoint x="-602" y="-348" as="offset" />
          </mxGeometry>
        </mxCell>
        <mxCell id="-b4encV27sLXHriJCV_K-2" value="NFS server" style="edgeLabel;html=1;align=center;verticalAlign=middle;resizable=0;points=[];labelPosition=center;verticalLabelPosition=middle;fontSize=15;labelBackgroundColor=#FFFFFF;" parent="dMxsjKUCfSVT_WvYJcaO-2" vertex="1" connectable="0">
          <mxGeometry x="0.8389" y="2" relative="1" as="geometry">
            <mxPoint x="-52" y="72" as="offset" />
          </mxGeometry>
        </mxCell>
        <mxCell id="dMxsjKUCfSVT_WvYJcaO-5" value="" style="endArrow=oval;html=1;startArrow=oval;startFill=1;endFill=1;strokeWidth=1;fontSize=13;fillColor=#dae8fc;strokeColor=#6c8ebf;" parent="dMxsjKUCfSVT_WvYJcaO-1" edge="1">
          <mxGeometry width="50" height="50" relative="1" as="geometry">
            <mxPoint x="62" y="300.00000000000045" as="sourcePoint" />
            <mxPoint x="736" y="300.00000000000045" as="targetPoint" />
          </mxGeometry>
        </mxCell>
        <mxCell id="dMxsjKUCfSVT_WvYJcaO-6" value="" style="group;fontSize=16;" parent="dMxsjKUCfSVT_WvYJcaO-1" vertex="1" connectable="0">
          <mxGeometry x="80" y="300" width="126" height="240" as="geometry" />
        </mxCell>
        <mxCell id="dMxsjKUCfSVT_WvYJcaO-7" value="Service-Cell" style="rounded=1;whiteSpace=wrap;html=1;verticalAlign=top;labelPosition=center;verticalLabelPosition=middle;align=center;fillColor=#fff2cc;strokeColor=#d6b656;fontSize=14;" parent="dMxsjKUCfSVT_WvYJcaO-6" vertex="1">
          <mxGeometry y="70" width="120" height="110" as="geometry" />
        </mxCell>
        <mxCell id="dMxsjKUCfSVT_WvYJcaO-8" style="edgeStyle=orthogonalEdgeStyle;rounded=0;orthogonalLoop=1;jettySize=auto;html=1;exitX=0.25;exitY=1;exitDx=0;exitDy=0;startArrow=oval;startFill=1;endArrow=oval;endFill=1;strokeWidth=1;fontSize=13;fillColor=#d5e8d4;strokeColor=#82b366;" parent="dMxsjKUCfSVT_WvYJcaO-6" source="dMxsjKUCfSVT_WvYJcaO-7" edge="1">
          <mxGeometry relative="1" as="geometry">
            <mxPoint x="30" y="240" as="targetPoint" />
          </mxGeometry>
        </mxCell>
        <mxCell id="dMxsjKUCfSVT_WvYJcaO-9" style="edgeStyle=orthogonalEdgeStyle;rounded=0;orthogonalLoop=1;jettySize=auto;html=1;exitX=0.75;exitY=0;exitDx=0;exitDy=0;startArrow=oval;startFill=1;endArrow=oval;endFill=1;strokeWidth=1;fontSize=13;fillColor=#dae8fc;strokeColor=#6c8ebf;" parent="dMxsjKUCfSVT_WvYJcaO-6" source="dMxsjKUCfSVT_WvYJcaO-7" edge="1">
          <mxGeometry relative="1" as="geometry">
            <mxPoint x="90" as="targetPoint" />
          </mxGeometry>
        </mxCell>
        <mxCell id="dMxsjKUCfSVT_WvYJcaO-10" value="internal-service" style="rounded=1;whiteSpace=wrap;html=1;strokeWidth=1;fillColor=#dae8fc;strokeColor=#6c8ebf;fontSize=13;" parent="dMxsjKUCfSVT_WvYJcaO-6" vertex="1">
          <mxGeometry x="8" y="100" width="104" height="30" as="geometry" />
        </mxCell>
        <mxCell id="dMxsjKUCfSVT_WvYJcaO-11" value="external-services" style="rounded=1;whiteSpace=wrap;html=1;strokeWidth=1;fillColor=#f8cecc;strokeColor=#b85450;fontSize=13;" parent="dMxsjKUCfSVT_WvYJcaO-6" vertex="1">
          <mxGeometry x="8" y="140" width="104" height="30" as="geometry" />
        </mxCell>
        <mxCell id="dMxsjKUCfSVT_WvYJcaO-12" value="" style="group" parent="dMxsjKUCfSVT_WvYJcaO-6" vertex="1" connectable="0">
          <mxGeometry x="-20" y="50" width="40" height="40" as="geometry" />
        </mxCell>
        <mxCell id="dMxsjKUCfSVT_WvYJcaO-13" value="" style="ellipse;whiteSpace=wrap;html=1;aspect=fixed;rounded=1;shadow=0;sketch=0;fontSize=23;strokeWidth=1;align=center;verticalAlign=middle;strokeColor=none;" parent="dMxsjKUCfSVT_WvYJcaO-12" vertex="1">
          <mxGeometry x="5" y="5" width="30" height="30" as="geometry" />
        </mxCell>
        <mxCell id="dMxsjKUCfSVT_WvYJcaO-14" value="" style="shape=image;html=1;verticalAlign=top;verticalLabelPosition=bottom;labelBackgroundColor=#ffffff;imageAspect=0;aspect=fixed;image=https://cdn3.iconfinder.com/data/icons/virus-transmission-3/64/Microorganism-cell-lab-virus-bacteria-scientist-petri_dish-128.png;rounded=1;shadow=0;fontSize=23;strokeWidth=1;sketch=0;" parent="dMxsjKUCfSVT_WvYJcaO-12" vertex="1">
          <mxGeometry width="40" height="40" as="geometry" />
        </mxCell>
        <mxCell id="dMxsjKUCfSVT_WvYJcaO-15" value="" style="group;fontSize=16;" parent="dMxsjKUCfSVT_WvYJcaO-1" vertex="1" connectable="0">
          <mxGeometry x="240" y="300" width="152" height="240" as="geometry" />
        </mxCell>
        <mxCell id="dMxsjKUCfSVT_WvYJcaO-16" style="edgeStyle=orthogonalEdgeStyle;rounded=0;orthogonalLoop=1;jettySize=auto;html=1;exitX=0.25;exitY=1;exitDx=0;exitDy=0;startArrow=oval;startFill=1;endArrow=oval;endFill=1;strokeWidth=1;fontSize=13;fillColor=#d5e8d4;strokeColor=#82b366;" parent="dMxsjKUCfSVT_WvYJcaO-15" edge="1">
          <mxGeometry relative="1" as="geometry">
            <mxPoint x="30" y="240" as="targetPoint" />
            <mxPoint x="30" y="160" as="sourcePoint" />
          </mxGeometry>
        </mxCell>
        <mxCell id="dMxsjKUCfSVT_WvYJcaO-17" style="edgeStyle=orthogonalEdgeStyle;rounded=0;orthogonalLoop=1;jettySize=auto;html=1;exitX=0.75;exitY=0;exitDx=0;exitDy=0;startArrow=oval;startFill=1;endArrow=oval;endFill=1;strokeWidth=1;fontSize=13;" parent="dMxsjKUCfSVT_WvYJcaO-15" edge="1">
          <mxGeometry relative="1" as="geometry">
            <mxPoint x="90" as="targetPoint" />
            <mxPoint x="90" y="80" as="sourcePoint" />
          </mxGeometry>
        </mxCell>
        <mxCell id="dMxsjKUCfSVT_WvYJcaO-18" value="" style="group;fontSize=13;" parent="dMxsjKUCfSVT_WvYJcaO-15" vertex="1" connectable="0">
          <mxGeometry width="152" height="240" as="geometry" />
        </mxCell>
        <mxCell id="dMxsjKUCfSVT_WvYJcaO-19" value="Service-Cell" style="rounded=1;whiteSpace=wrap;html=1;verticalAlign=top;labelPosition=center;verticalLabelPosition=middle;align=center;fillColor=#fff2cc;strokeColor=#d6b656;fontSize=14;" parent="dMxsjKUCfSVT_WvYJcaO-18" vertex="1">
          <mxGeometry y="70" width="120" height="110" as="geometry" />
        </mxCell>
        <mxCell id="dMxsjKUCfSVT_WvYJcaO-20" style="edgeStyle=orthogonalEdgeStyle;rounded=0;orthogonalLoop=1;jettySize=auto;html=1;exitX=0.25;exitY=1;exitDx=0;exitDy=0;startArrow=oval;startFill=1;endArrow=oval;endFill=1;strokeWidth=1;fontSize=13;fillColor=#d5e8d4;strokeColor=#82b366;" parent="dMxsjKUCfSVT_WvYJcaO-18" source="dMxsjKUCfSVT_WvYJcaO-19" edge="1">
          <mxGeometry relative="1" as="geometry">
            <mxPoint x="30" y="240" as="targetPoint" />
          </mxGeometry>
        </mxCell>
        <mxCell id="dMxsjKUCfSVT_WvYJcaO-21" style="edgeStyle=orthogonalEdgeStyle;rounded=0;orthogonalLoop=1;jettySize=auto;html=1;exitX=0.75;exitY=0;exitDx=0;exitDy=0;startArrow=oval;startFill=1;endArrow=oval;endFill=1;strokeWidth=1;fontSize=13;fillColor=#dae8fc;strokeColor=#6c8ebf;" parent="dMxsjKUCfSVT_WvYJcaO-18" source="dMxsjKUCfSVT_WvYJcaO-19" edge="1">
          <mxGeometry relative="1" as="geometry">
            <mxPoint x="90" as="targetPoint" />
          </mxGeometry>
        </mxCell>
        <mxCell id="dMxsjKUCfSVT_WvYJcaO-22" value="internal-service" style="rounded=1;whiteSpace=wrap;html=1;strokeWidth=1;fillColor=#dae8fc;strokeColor=#6c8ebf;fontSize=13;" parent="dMxsjKUCfSVT_WvYJcaO-18" vertex="1">
          <mxGeometry x="8" y="100" width="104" height="30" as="geometry" />
        </mxCell>
        <mxCell id="dMxsjKUCfSVT_WvYJcaO-23" value="external-services" style="rounded=1;whiteSpace=wrap;html=1;strokeWidth=1;fillColor=#f8cecc;strokeColor=#b85450;fontSize=13;" parent="dMxsjKUCfSVT_WvYJcaO-18" vertex="1">
          <mxGeometry x="8" y="140" width="104" height="30" as="geometry" />
        </mxCell>
        <mxCell id="dMxsjKUCfSVT_WvYJcaO-24" value="" style="group;fontSize=16;" parent="dMxsjKUCfSVT_WvYJcaO-1" vertex="1" connectable="0">
          <mxGeometry x="600" y="300" width="126" height="240" as="geometry" />
        </mxCell>
        <mxCell id="dMxsjKUCfSVT_WvYJcaO-25" value="" style="group;fontSize=13;" parent="dMxsjKUCfSVT_WvYJcaO-24" vertex="1" connectable="0">
          <mxGeometry width="126" height="240" as="geometry" />
        </mxCell>
        <mxCell id="dMxsjKUCfSVT_WvYJcaO-26" value="Service-Cell" style="rounded=1;whiteSpace=wrap;html=1;verticalAlign=top;labelPosition=center;verticalLabelPosition=middle;align=center;fillColor=#fff2cc;strokeColor=#d6b656;fontSize=14;" parent="dMxsjKUCfSVT_WvYJcaO-25" vertex="1">
          <mxGeometry y="70" width="120" height="110" as="geometry" />
        </mxCell>
        <mxCell id="dMxsjKUCfSVT_WvYJcaO-27" style="edgeStyle=orthogonalEdgeStyle;rounded=0;orthogonalLoop=1;jettySize=auto;html=1;exitX=0.25;exitY=1;exitDx=0;exitDy=0;startArrow=oval;startFill=1;endArrow=oval;endFill=1;strokeWidth=1;fontSize=13;fillColor=#d5e8d4;strokeColor=#82b366;" parent="dMxsjKUCfSVT_WvYJcaO-25" source="dMxsjKUCfSVT_WvYJcaO-26" edge="1">
          <mxGeometry relative="1" as="geometry">
            <mxPoint x="30" y="240" as="targetPoint" />
          </mxGeometry>
        </mxCell>
        <mxCell id="dMxsjKUCfSVT_WvYJcaO-28" style="edgeStyle=orthogonalEdgeStyle;rounded=0;orthogonalLoop=1;jettySize=auto;html=1;exitX=0.75;exitY=0;exitDx=0;exitDy=0;startArrow=oval;startFill=1;endArrow=oval;endFill=1;strokeWidth=1;fontSize=13;fillColor=#dae8fc;strokeColor=#6c8ebf;" parent="dMxsjKUCfSVT_WvYJcaO-25" source="dMxsjKUCfSVT_WvYJcaO-26" edge="1">
          <mxGeometry relative="1" as="geometry">
            <mxPoint x="90" as="targetPoint" />
          </mxGeometry>
        </mxCell>
        <mxCell id="dMxsjKUCfSVT_WvYJcaO-29" value="internal-service" style="rounded=1;whiteSpace=wrap;html=1;strokeWidth=1;fillColor=#dae8fc;strokeColor=#6c8ebf;fontSize=13;" parent="dMxsjKUCfSVT_WvYJcaO-25" vertex="1">
          <mxGeometry x="8" y="100" width="104" height="30" as="geometry" />
        </mxCell>
        <mxCell id="dMxsjKUCfSVT_WvYJcaO-30" value="external-services" style="rounded=1;whiteSpace=wrap;html=1;strokeWidth=1;fillColor=#f8cecc;strokeColor=#b85450;fontSize=13;" parent="dMxsjKUCfSVT_WvYJcaO-25" vertex="1">
          <mxGeometry x="8" y="140" width="104" height="30" as="geometry" />
        </mxCell>
        <mxCell id="dMxsjKUCfSVT_WvYJcaO-31" value="&lt;font style=&quot;font-size: 23px;&quot;&gt;...&lt;/font&gt;" style="text;html=1;strokeColor=none;fillColor=none;align=center;verticalAlign=middle;whiteSpace=wrap;rounded=0;fontSize=23;" parent="dMxsjKUCfSVT_WvYJcaO-1" vertex="1">
          <mxGeometry x="380" y="400" width="40" height="20" as="geometry" />
        </mxCell>
        <mxCell id="dMxsjKUCfSVT_WvYJcaO-33" value="Gateway&lt;br style=&quot;font-size: 14px;&quot;&gt;(NGINX)" style="rounded=1;whiteSpace=wrap;html=1;strokeWidth=1;fillColor=#dae8fc;strokeColor=#6c8ebf;fontSize=14;" parent="dMxsjKUCfSVT_WvYJcaO-1" vertex="1">
          <mxGeometry x="356" y="210" width="116" height="60" as="geometry" />
        </mxCell>
        <mxCell id="dMxsjKUCfSVT_WvYJcaO-34" style="edgeStyle=orthogonalEdgeStyle;rounded=0;orthogonalLoop=1;jettySize=auto;html=1;fontSize=13;startArrow=oval;startFill=1;endArrow=oval;endFill=1;strokeWidth=1;fillColor=#dae8fc;strokeColor=#6c8ebf;" parent="dMxsjKUCfSVT_WvYJcaO-1" source="dMxsjKUCfSVT_WvYJcaO-33" edge="1">
          <mxGeometry relative="1" as="geometry">
            <mxPoint x="414" y="300.00000000000045" as="targetPoint" />
            <Array as="points">
              <mxPoint x="414" y="300" />
            </Array>
          </mxGeometry>
        </mxCell>
        <mxCell id="dMxsjKUCfSVT_WvYJcaO-36" value="" style="group;fontSize=16;" parent="dMxsjKUCfSVT_WvYJcaO-1" vertex="1" connectable="0">
          <mxGeometry x="440" y="300" width="180" height="240" as="geometry" />
        </mxCell>
        <mxCell id="dMxsjKUCfSVT_WvYJcaO-37" value="" style="group;fontSize=13;" parent="dMxsjKUCfSVT_WvYJcaO-36" vertex="1" connectable="0">
          <mxGeometry width="180" height="240" as="geometry" />
        </mxCell>
        <mxCell id="dMxsjKUCfSVT_WvYJcaO-38" value="Service-Cell" style="rounded=1;whiteSpace=wrap;html=1;verticalAlign=top;labelPosition=center;verticalLabelPosition=middle;align=center;fillColor=#fff2cc;strokeColor=#d6b656;fontSize=14;" parent="dMxsjKUCfSVT_WvYJcaO-37" vertex="1">
          <mxGeometry y="70" width="120" height="110" as="geometry" />
        </mxCell>
        <mxCell id="dMxsjKUCfSVT_WvYJcaO-39" style="edgeStyle=orthogonalEdgeStyle;rounded=0;orthogonalLoop=1;jettySize=auto;html=1;exitX=0.25;exitY=1;exitDx=0;exitDy=0;startArrow=oval;startFill=1;endArrow=oval;endFill=1;strokeWidth=1;fontSize=13;fillColor=#d5e8d4;strokeColor=#82b366;" parent="dMxsjKUCfSVT_WvYJcaO-37" source="dMxsjKUCfSVT_WvYJcaO-38" edge="1">
          <mxGeometry relative="1" as="geometry">
            <mxPoint x="30" y="240" as="targetPoint" />
          </mxGeometry>
        </mxCell>
        <mxCell id="dMxsjKUCfSVT_WvYJcaO-40" style="edgeStyle=orthogonalEdgeStyle;rounded=0;orthogonalLoop=1;jettySize=auto;html=1;exitX=0.75;exitY=0;exitDx=0;exitDy=0;startArrow=oval;startFill=1;endArrow=oval;endFill=1;strokeWidth=1;fontSize=13;fillColor=#dae8fc;strokeColor=#6c8ebf;" parent="dMxsjKUCfSVT_WvYJcaO-37" source="dMxsjKUCfSVT_WvYJcaO-38" edge="1">
          <mxGeometry relative="1" as="geometry">
            <mxPoint x="90" as="targetPoint" />
          </mxGeometry>
        </mxCell>
        <mxCell id="dMxsjKUCfSVT_WvYJcaO-41" value="internal-service" style="rounded=1;whiteSpace=wrap;html=1;strokeWidth=1;fillColor=#dae8fc;strokeColor=#6c8ebf;fontSize=13;" parent="dMxsjKUCfSVT_WvYJcaO-37" vertex="1">
          <mxGeometry x="8" y="100" width="104" height="30" as="geometry" />
        </mxCell>
        <mxCell id="dMxsjKUCfSVT_WvYJcaO-42" value="external-services" style="rounded=1;whiteSpace=wrap;html=1;strokeWidth=1;fillColor=#f8cecc;strokeColor=#b85450;fontSize=13;" parent="dMxsjKUCfSVT_WvYJcaO-37" vertex="1">
          <mxGeometry x="8" y="140" width="104" height="30" as="geometry" />
        </mxCell>
        <mxCell id="dMxsjKUCfSVT_WvYJcaO-43" value="" style="group" parent="dMxsjKUCfSVT_WvYJcaO-37" vertex="1" connectable="0">
          <mxGeometry x="-20" y="50" width="40" height="40" as="geometry" />
        </mxCell>
        <mxCell id="dMxsjKUCfSVT_WvYJcaO-44" value="" style="ellipse;whiteSpace=wrap;html=1;aspect=fixed;rounded=1;shadow=0;sketch=0;fontSize=23;strokeWidth=1;align=center;verticalAlign=middle;strokeColor=none;" parent="dMxsjKUCfSVT_WvYJcaO-43" vertex="1">
          <mxGeometry x="5" y="5" width="30" height="30" as="geometry" />
        </mxCell>
        <mxCell id="dMxsjKUCfSVT_WvYJcaO-45" value="" style="shape=image;html=1;verticalAlign=top;verticalLabelPosition=bottom;labelBackgroundColor=#ffffff;imageAspect=0;aspect=fixed;image=https://cdn3.iconfinder.com/data/icons/virus-transmission-3/64/Microorganism-cell-lab-virus-bacteria-scientist-petri_dish-128.png;rounded=1;shadow=0;fontSize=23;strokeWidth=1;sketch=0;" parent="dMxsjKUCfSVT_WvYJcaO-43" vertex="1">
          <mxGeometry width="40" height="40" as="geometry" />
        </mxCell>
        <mxCell id="dMxsjKUCfSVT_WvYJcaO-46" value="" style="group" parent="dMxsjKUCfSVT_WvYJcaO-37" vertex="1" connectable="0">
          <mxGeometry x="140" y="50" width="40" height="40" as="geometry" />
        </mxCell>
        <mxCell id="dMxsjKUCfSVT_WvYJcaO-47" value="" style="ellipse;whiteSpace=wrap;html=1;aspect=fixed;rounded=1;shadow=0;sketch=0;fontSize=23;strokeWidth=1;align=center;verticalAlign=middle;strokeColor=none;" parent="dMxsjKUCfSVT_WvYJcaO-46" vertex="1">
          <mxGeometry x="5" y="5" width="30" height="30" as="geometry" />
        </mxCell>
        <mxCell id="dMxsjKUCfSVT_WvYJcaO-48" value="" style="shape=image;html=1;verticalAlign=top;verticalLabelPosition=bottom;labelBackgroundColor=#ffffff;imageAspect=0;aspect=fixed;image=https://cdn3.iconfinder.com/data/icons/virus-transmission-3/64/Microorganism-cell-lab-virus-bacteria-scientist-petri_dish-128.png;rounded=1;shadow=0;fontSize=23;strokeWidth=1;sketch=0;" parent="dMxsjKUCfSVT_WvYJcaO-46" vertex="1">
          <mxGeometry width="40" height="40" as="geometry" />
        </mxCell>
        <mxCell id="dMxsjKUCfSVT_WvYJcaO-49" value="" style="group;container=1;" parent="dMxsjKUCfSVT_WvYJcaO-1" vertex="1" connectable="0">
          <mxGeometry x="322" y="560" width="238" height="140" as="geometry">
            <mxRectangle x="322" y="560" width="50" height="40" as="alternateBounds" />
          </mxGeometry>
        </mxCell>
        <mxCell id="dMxsjKUCfSVT_WvYJcaO-50" value="&lt;div&gt;&lt;span&gt;workmodel.json&lt;/span&gt;&lt;br&gt;&lt;/div&gt;&lt;div&gt;custom functions&lt;/div&gt;" style="rounded=1;whiteSpace=wrap;html=1;shadow=0;fontSize=15;strokeWidth=1;verticalAlign=middle;opacity=60;fillColor=#d5e8d4;strokeColor=#82b366;align=center;" parent="dMxsjKUCfSVT_WvYJcaO-49" vertex="1">
          <mxGeometry x="4.999622641509433" y="50" width="172.33037735849058" height="82.5" as="geometry" />
        </mxCell>
        <mxCell id="dMxsjKUCfSVT_WvYJcaO-51" value="" style="shape=image;html=1;verticalAlign=top;verticalLabelPosition=bottom;labelBackgroundColor=#ffffff;imageAspect=0;aspect=fixed;image=https://cdn0.iconfinder.com/data/icons/education-flat-7/128/24_DNA-128.png;rounded=1;shadow=1;fontSize=15;strokeWidth=1;opacity=90;fillColor=#d5e8d4;strokeColor=#82b366;" parent="dMxsjKUCfSVT_WvYJcaO-49" vertex="1">
          <mxGeometry x="-22" y="15" width="71.49877358490566" height="71.49877358490566" as="geometry" />
        </mxCell>
        <mxCell id="-b4encV27sLXHriJCV_K-4" style="edgeStyle=orthogonalEdgeStyle;rounded=0;orthogonalLoop=1;jettySize=auto;html=1;fontSize=15;" parent="dMxsjKUCfSVT_WvYJcaO-49" source="dMxsjKUCfSVT_WvYJcaO-56" target="dMxsjKUCfSVT_WvYJcaO-50" edge="1">
          <mxGeometry relative="1" as="geometry" />
        </mxCell>
        <mxCell id="dMxsjKUCfSVT_WvYJcaO-56" value="" style="verticalAlign=top;verticalLabelPosition=bottom;labelPosition=center;align=center;html=1;outlineConnect=0;fillColor=#d5e8d4;strokeColor=#82b366;gradientDirection=north;strokeWidth=2;shape=mxgraph.networks.storage;" parent="dMxsjKUCfSVT_WvYJcaO-49" vertex="1">
          <mxGeometry x="208" y="71.5" width="30" height="40" as="geometry" />
        </mxCell>
        <mxCell id="dMxsjKUCfSVT_WvYJcaO-52" style="edgeStyle=orthogonalEdgeStyle;rounded=0;orthogonalLoop=1;jettySize=auto;html=1;fontSize=23;startArrow=oval;startFill=1;endArrow=oval;endFill=1;strokeWidth=1;fillColor=#d5e8d4;strokeColor=#82b366;" parent="dMxsjKUCfSVT_WvYJcaO-1" source="dMxsjKUCfSVT_WvYJcaO-50" edge="1">
          <mxGeometry relative="1" as="geometry">
            <mxPoint x="413" y="540.0000000000005" as="targetPoint" />
            <Array as="points">
              <mxPoint x="413" y="540" />
            </Array>
          </mxGeometry>
        </mxCell>
        <mxCell id="dMxsjKUCfSVT_WvYJcaO-53" value="" style="group" parent="dMxsjKUCfSVT_WvYJcaO-1" vertex="1" connectable="0">
          <mxGeometry x="220" y="350" width="40" height="40" as="geometry" />
        </mxCell>
        <mxCell id="dMxsjKUCfSVT_WvYJcaO-54" value="" style="ellipse;whiteSpace=wrap;html=1;aspect=fixed;rounded=1;shadow=0;sketch=0;fontSize=23;strokeWidth=1;align=center;verticalAlign=middle;strokeColor=none;" parent="dMxsjKUCfSVT_WvYJcaO-53" vertex="1">
          <mxGeometry x="5" y="5" width="30" height="30" as="geometry" />
        </mxCell>
        <mxCell id="dMxsjKUCfSVT_WvYJcaO-55" value="" style="shape=image;html=1;verticalAlign=top;verticalLabelPosition=bottom;labelBackgroundColor=#ffffff;imageAspect=0;aspect=fixed;image=https://cdn3.iconfinder.com/data/icons/virus-transmission-3/64/Microorganism-cell-lab-virus-bacteria-scientist-petri_dish-128.png;rounded=1;shadow=0;fontSize=23;strokeWidth=1;sketch=0;" parent="dMxsjKUCfSVT_WvYJcaO-53" vertex="1">
          <mxGeometry width="40" height="40" as="geometry" />
        </mxCell>
        <mxCell id="dMxsjKUCfSVT_WvYJcaO-57" value="" style="outlineConnect=0;strokeColor=#6c8ebf;dashed=0;verticalLabelPosition=bottom;verticalAlign=top;align=center;html=1;fontSize=12;fontStyle=0;aspect=fixed;pointerEvents=1;shape=mxgraph.aws4.network_load_balancer;fillColor=#3F76B5;" parent="dMxsjKUCfSVT_WvYJcaO-1" vertex="1">
          <mxGeometry x="758" y="241" width="39" height="39" as="geometry" />
        </mxCell>
        <mxCell id="sM68YDgqJwR2TVpxMyUJ-0" value="" style="shape=image;verticalLabelPosition=bottom;labelBackgroundColor=#ffffff;verticalAlign=top;aspect=fixed;imageAspect=0;image=data:image/png,iVBORw0KGgoAAAANSUhEUgAAAf4AAAIACAMAAABUwf7jAAAABGdBTUEAALGPC/xhBQAAAAFzUkdCAK7OHOkAAAMAUExURUdwTP8AANdLMf9/ANdOMdtNMdxLLtpOMdhOMdlNL98/P8xmM/9VVdpMLr8/P9pLMeVMM9pNMdpOLthOLtpIJNdLLtRVKtdLMddOMddMLtlOMdpINtdLMeJVONdOMddOJ9RVKtpOMddLLtpOLthNMdpLMddLMNpMMdhOMdlOMNRVKtBFLtpOMddOLt1MM9pNMNpNMd1VM9pRLddOMdpNMNxRLtlNMdhMM9lOL9hMMdpLLtlOMtpNMdtNMtpOMdxLMNpML9pNMtlMMdtNL99KNdpNMddOL9pLLtdOLdlNMd9PL9hNMNpNMdpLMdlOMdlOLtdNMdlML9hNMtpQM9lOM9pNMddML9lOMNdOMdhNMN1NLNlOMNpMMddLMdhOMddPM9pOMdlPMNlNMdtPMuFLLdlLMNpNMdpLMdlOMdlMMdpOMNlLL9lOL9pNMdlNMNlPMdhOL9pOL9pNMdtOMdZRM9lPL9pOMdlNMdlOL9pOMNpPMNhNLtlNMdhOMtpOMNlOMdpNMNlNMNhOLtlOMdpOMdpMLttMM9pOMdpML9hOLthOLtlNMttOL9pOL9hOMdpMMNlOL9pOMNhOMNpOL9hPMdlQMdpOMNdLMdpOMdpOMNlOL9pML9pNMdpNMNlOMNpOMdpNMNpOMNpMMNlNMdlNMN5KMdlNMdhOMNpMLtpOMdlPMtpNMNtOMNlMMNlOMNlOMdtPL9lNL9hNL9hMMNlOMdpOMNpPMdpOL9pOMdtPMNlOL9pNMNpOMNpNMtdPL9hNL9pNMdlOMdpOMNpOMNlOMdlOMdpNMNpOMdlNMNlOMNlOMdlLNNpOLtpOMdpIMNpNMNpOMNhOMdpNMdhML9pNMtpNMNlOMdlMMNhMMNpOMdlNMNtNMNtPNNpNLtpOMdpMMdpMMNpMMNpNMNlOMNpNMNhMM9lNMNhPMNpOL9ZQLthMM9pOMdpLMdlOMdtMMdpOMdhOMdtMMdlQL9ZQNdlMMdlNMNpNMdhNMdlNMdlNMdxQMtlOMNhOL9pOMdtNMdpOMUeprQUAAAD/dFJOUwAB/QL+JCyM1MwIBQP6BPkK7fv1B/wG6fjw7g7vCRoNDPT26y7y4rToiRIL5PEeY7UPHOquFqsUt0PlUdlWiyVGOMUrGJv37CekEJ5381jg47FCIzfP3I80shdeU866LXFKgEcRL5HfPpAqG6KhjmfH0YpOGTCmv+eTWiGBa3h8qLjGld7LMmGn4dtmQVu5P0vds5JXKW/VaFR1wVxpo8pFvciHeh9tzeagPZhVdER7QGCXSYJ+Tby2OmWErUwgO3aWw3/TqpSfX4iwIjGvFcKZcslQcIOcnTWFWU8d1tC70mp9qY08eWTXJiiG2NpdYsA5NhO+c5qlUmwzbqzESA7iNIcAACAASURBVHja7F15fE3XFr6SmEIkuQlBEpEQiUTEPNY8pTHEUHMQQw0xBU8NMcRMa4yp5qKqKCmKouanvFJq1qqf1/LrrO95bdV7bX/74UpyhzPsfc65d3/n3vP9vc6669vfPcNee+21TSYDBjwEJXqlD224PnHD9ZPTb1Qedurmxvv3N9481b3yjeknV21IXH9tZ3rtEsYouRciKo4bnTNqRLWr3cr4EFn4hHW7Wm3EqJzR4ypGGGOnYwSk95/a+M/tgUQxAovWafxV/5XhxljqCpf2pJ3bEkI0Q2xG27T6l4xxhUfwxfMP7sUSpyC2b+HeF4ONMcZE+NBpWXfNxMkwr85qt9PXGG0o1H7yYIsfcRn8MxpfM94FECiQfmTH64QDHp77dmUBY/x54vtV2YGEI9r0fKegoQKfed2xWcsIALpNWhpgqOFarLxyrzSBQevFaT8YmrjqE//OrhQChyH7xhkTAudP7K/NjySgaP/7HSMt4ESUOrgxgUCjzIilxQydnIFi+8+FER2gbNuBxqqhxvCu3yqQ6AYVHnc2MgLaYfjXKURnmJ1TztBNCxQfl12S6BAlOx0rbqinEsePNiC6RZUPthkKqvjae6+vD9E1vGakGjMBZSj3Y03iBgj5vKWhJTP6jfQnbgL/ti0MPZnQdDFxK9TbY2hK/co/P4a4HbquN5JBNEhuV4W4JTquDTXUlUHLUe2J2yK6cG1DYQnUbRxE3BqR/4gzVBbBoKPtidsjYUp1Q2kBhB4oQzwCZXPKG2rbIX5aIPEYVFgbYChuBd+0EB4ymLOPnFjCJa08cZVRF5SLAos68pAgNu3ZVo1sTk+ASl8Ywj/HfzJ4DH/Ujedv4MP8XgF/9TC0N5UbweXpW7SL5ecvc/wE8Dnn6YtBvtP51O0uL2X5/ROc80DTPPoT4L0hfApx9uYG0Ir3JGDZE48V/+I6PkNeumHewwcg1fBrRc9M85zy4jPerfMXXzsgZAFKTvLAJkJ3eK3reaXmB1ELIw1UaamHid+rDrexXmUVRggBwXyPWgpMLMttoJdbhZGJkwcOPO8x4nfZzG+Yr1oX3nYgQOib6RHiFz8ZxW+Mw45bh1IYaiEo6DcP2BZysQ/PIU61iWU+2ErgnFfdXHzvb/x4jm+WbTT30FaC/dp5u7P6Vf/Nt9Cil204fQgcfq3hvuqv4LxBP9EungV48pPANW4qfsQIziPb3D6iSgQRbcu7o/qPuLdhe2Qf0l1I+Um3V9xvujeA+yb9jxyC2oQpPzF/7WZTwMyZ/Me0iUNUEwgqTrtVY4CDAAurtxzDqgMrPynb330m+zcAmjR4JTkG9jmu/MTnjJt0h4qrhzCcnwpE1psgIybZHdQfPxtiMJsJhPYKtPykWz/9q987CmIoM4RiS8aWnwRN1rn4xWaBjGSiYHgPwfUng3XdGKrcTJBhjI4XjO8WuvzktI63AhyORRnFVsIB7oWXn7zbTLcrPDgnLhwWqTvCl59EpepT/Wk4LRmriM2h9dBGyGe3DsUv8RhoBD8Wi/Ix0QNO6W4JIGIG0vh1FgvzmC7kJzE6WwOuAdWZr43o3eOrk1ZSfXTVHn481jv1vnikn+hDflJJRxnA/WAdut4UD3WeTuQnCU31ov4RtOMXksRjTfbXi/7mefpQ/wpc5kQqWr08/Z9OAFfpQf0zcONWRyrcRkQ/eBtf/bF4o5YjFW94tBrXrV1bv/ojuPgFZgHeNEslQx6pwnNIZxdXsQ2GLgEqvgPxmSm9caa+csezMxNdzeUW8C6wYmcR1Q+UeWClKHW8rKrJ9d2J5sOeCuEbA/nBVFQm7AEK/aZUNdXgsKrVCbQXXPwhzO/lWjJxH1emYdhKk+kPHnz6BiCqH466aWKwXOSKmo34L3l6JZ8Dpzb74qlf6kPU2fJvcqFPVuL1yNMLAzjVs8TAVQAW/wg2WfKzXOzBCo4SOPfsws68KJ0FKwDwfhk3VyZfLDWM2ec/w59dd4Abpx1Y8//PgFOl+2WjT2d+8VsasXJ8381CUn8UcqZ8qHz8zRldTrNcNpEjq7E46t+AXii5LU/gPJvHLZbUW22utA6gqN8OWn1C0S0tnKnpUMnxlqt28uV1BUP9qdjqE5rjs5ezOOwOUik0GkH9NT7g8idRkCjE4C82QmW2WCt4jeOvfrPW4OqTCzQ0miu46bhPd4K4HwZ1oSa6+oSqRpq+08PqvJRLJ+7UJnJuART3E7z6hOrYdF/qFvP5T9zL/Lmt5nogcLDrR+AQ82SbrkBiMKW3OfmXdAX4b2/mmP4v8Jrr+fYw9RvLNE2LouPSgtLdwfxLIJpD7OAnP4/OWAOe/m71ygx9wWtSkqHrRLHd6oohCPKTM7zUT+TB1lK7M/4l6gt+omRDN4tvZHUFSEvgn/mo/5aZB1kfy4d8RDXaC5pT0glIoHA223qlFaQhuP/7PNRvwqlT55EXBQa0Bdo9aQnto3D2h/UFr4NMbcpecL368UU4ke2UW2JA2R++LS2jufK+Emw6RBUBkZ90DXe5/FncUl25z98SdMvtjakpbZf1NUnBx6IrMMLV6qfx45p34FnodzTm9AtjX8n6SrexrwcjP5nqWvWXmPlRrZ8XRRLN6e8dqEkNkqvcXGdrD1Tg5nfYleoP59mw70h+HDR9+YZq90LrbWv+ACiz3cCF7R9LZfBkutUqEord+QXpeTWV9hQdYGu+G2ll47LrNn+d4krUulNPS/n8bwBDvXIlpjkEVmuAYa5S/zxfnpuYSo1qsjA7KulqiZ01WD/4L1yj/njOBR4hNjes3LLbVRZqBaU8VbFfOqyLJX+QS5p/BfBe4i9rE47c9vwsJnKXJTx1d7AOxNK/iCv2/nEvcWpjYpl9b2Ui94aEp2aqtwc4Gx87X/073ElWsA3otrT1G0zsksWn/gscrXeByS/TxkYD/K0Cd44hdiFlS1p3ZuNXS9TRckfjDWjyh9R2cn3PYv4cY+1iOiFpzdgMN1XU0UJHY7yjoKq5bao/D++yvIITWKsXxRIJgQJ7qoP94fT/rzPVr4hwPkcD+6jW0CYJaNBKxNFGIeNNcPK3buE89X0hVrjH2IdVQqJ/OPNS6BKWpEp3OPnJGOd1fpoEQdCxfEeij+w3zF83wiVcXr8IGT/Bk18gPaER9qPObqt6iRqzn4RcWNBPhqBtXcD9jT5NnaN+aEcMfmsdQxOfjwxnpin8OT9F2Lgr4O2/oLwbrvPlY4VjaJMpU0RUSBFyJFI1ANjAWjBDoR4nUB50AucaxosdyXNIAVGhp39QKWHbzojyeznh5MfguyjshBI580VsHyhgKvT0nyFW+BKNqH8R7Tf+fYDCLVJoy+Yalumagqd/OzFbyCbW2vf9KeSHQm2d4K4DkRqELiZtnv6PxGwnQ8rvv1Jb9b0zYKgVFgywk2ZffkJP/yjRp2loaUj9/9K27eMqHGaNBAMcreUKiEPJ3wRx256Q8mtb+L8N6GC+TMEIv9TyHehwIs0NcdtFmPJH19BQfqD9LGKlm4LLEQoTYEsZcofxkZj699RO/VQgWmLPc6HmLGaF+a94f7s8apyEMWoz62uaLfQNAWI1QCTIcQK2W5QytqsgeEnK9i1Q+buV0kj+t5FYLRQJsrrAsk9lpYy32voZKTkpWgCq/0mNyvuQDmSOFP1PC6y+7FdK+aCtH+kSmjOg8kf30kR+qLP5shmKEUqGKqV8iTLp8xzDS4Lqf1ML9W9DrWmL34grHGybKydtM/M3hyutDuYLr7kayD8TitL3onFmOthOV076U2s/Y2SM64PKT06rVx8rqT1EIlKH7sIqGh5PsfYj2znx76j6N1KrfkBHKD67JEK1P0M0REXe26aIL03OOhFV/hS1u/4GYPFpKBGq/ZEyG1XQ/sHakexGoeCJqPpPV6f+l1FQbKLiJWK1X/NfoYJ3Ceu83y+y5tNQ5Y8crkr+VlhsJI/jbWJr21pVxaNVbVMDiirYMFT996kZhC5mLDKLJCv0bQv+Oqn631t9+vfVUy2UPfyOqxiEkVhc/KXzOH1sjHurkr9xviOafRODElD1v6V8DJLA8lkx0uH+bvO3T1Yl/5v5nr5lnikiwVxQ8RhkgVGZJx1ujrVtPXXfvFY93qg6JoYGour/stIh6Ae2hckcJx2vTdp3sjr5k/I9xVFdsBtVfq90hUOAlsuW+wbrYWWboLLJtW/eX5+yXDQ4BVX/s8pGYC4aj3/JBJyszRePBSGsifMOqPL7vKpoAGLAaJSWPbTM6jC2oWrln5PrqZXCEiEcfKKEfzM0Fn/Khjwmz3aZ6jr3vIl/O32ujFtDydpXXzQSDWVDzu/xtVv1Smfeoc6pes2SqJoF/Q+NQ5h815K8+vygQarlz0vj0785hweh6s/+9n8NjQJF6VIO8/taHHmH+jIsHaBW/bF3OKpqRqOwUD7oxFzbiurl3/PCVQhLcUQD1Mw/68LfKDQGVSiO4s3dnTNBgxq33ENdmfYK7EW9/ceyka8erUcCud8r9TWQP+6FryyWi7zHgMpfJoKJ/Fo4AjTtCrdZTGdqUeBcwN/ijK0j+EDU2z+NhUWxjmjh96EJu7zFtr8W8ufWeo9mu+oQqPwpLEf9rIcL/zpV3M/v2KKaqJ+b9mP8L/VAzf2wtLmBa1dnputU/rzkcqA28r/IeRdivOwsqPwMN8UeuOBj6AJ/+NT0Q23UN7W1/HJ1xsuSULd8vU9NoR5c7JT7FYo+fU5o1dXIsss3WunfRq93kMnUBO79FUbZpnoCIbM0Ut90/fkvf8d8XaYfpvw+tF3OKsOF/hll5D3/z96Zh9d05nH8lVwlN7nJjSWSiASJNSHWoKLUFpSxq1CUULRjeEYtaWuJrYraS2prtCaU6EwtpWOsTbVqtDWMp2YIXaz1YGifPsO0Z+69WW9yl3PPyX3f7/ve9/v/Ob/v/X1yTs67/X5KbJvywp9ftEdDWdCvQR//H1WO+mrAOb+mMvPfe9CwWd0H0CTPL/wT6OM/U93Y7zk44wvUrt6//7dyo0/iPHlk7NQN9PFXV+0nA873PrWJPzSs/PAPs4XO1nDladCP/2aq3l1+cL5Vb1WvXX70SZAtDzlaLp2Oib+6mlp/eOeVphAmsn0C7dT+fwNPKqpcBiXAuf6WDX7b6l1HTZdmYOJ/w/2i+WE406aHbPDbNjtqqw6FWu7lN7fO+8N5/oINfbLFEjtcz5sDT24HRtF4X60dGOG39unpp/Hae5j4Te5GRtvgLPcxM8JvbVi7XeO1RtATn8fc+K4M53g6I/q2U1sZel4dgBqsboMjkKaywj9Bz99eR9BtH7dcusarUhAVxgp/RUv0dM1Xb8XE/51L03fg/D7Dij4xKk6bd6peMIRTrivP4/D8dmKGn6QoymPNF9eKwOTvqtjDRTi3LYPY4R+sKHe1X30BE7+r99kSOLfH2dG3zoAd1n71Mkz8LrYvLcJzm8UQ/xpFOar9an/QA39xHO3yighkiP+s6/+U7vQCJv6LTg2Ph/M6nSF90l5R9HTDO4qJf4kzvw/wvK5liT9OUWJ0XO5fA5O/sx4fT8E5DanJEr/Z4KerRBDonj9nh1bXwznNIEzVr4muy89h4nfSm6YpntPNbPFfSdB1ee0QTP6OS31MhvNpiGaLf80dfdeDzvsnOjR7Bs5nAFv6ZKlOA9sw8Sc58hoIV8/Fw8oa5a9B9/Vd/wATf0QwH5OU7RjjN+vrCEKC+2Dy38nFlF93I2P8ZL/O60E3fDua+LsK5/IAa/pkp94/H0z8DgolvYTn8jpz/HpXHDph4jd0LeM0Ec/lN4R3NQfd8fd5Gaf/g/MY5c89fluxIUDNLe0zCG9vUiv+6ZPFmPhDS69lTMPzmC0A/t6Y+JVRpXz+F8/iIAHwjwbFnwn/ljIZBcB/CRR/6e7m9eEcDhaAPqkAOu+3AP6vtJsI+Ml20Mf/ZTuXgE3oJguBH7TMj/K2nct0PIOPhMB/CBT/RDuXI+D8hYQJgf91UPwL7bYl4dX0CBCCPhkAir9KfAmTeBXcVZfxBVdHUPx2jdEAG9D9LAZ+Iyr+OSVMjsSz114M/CQKFH/Jxq6AhYimCYL/Jij+2GKLLQDtNRcE/wzUt3/xxM9ePHOhgtAnSaj4OyEvSwaIgn8PKv7iHve/4JlLEgX/P1HxF3f1zsUz10gU/LtR8ecVOgwEbD6TKQr+paj4QwrP+iB2HxBl2E/WouIvaoq9CdBblij4P4LFX9jVtxGgt49Fwd8OFn9hk7K2gN7iRMH/NCz+wq6uiAXoTouCfxEs/vr5BnshehsmCv4usPgL+hQ9QrQWLwr+irj481fVngN0ZqggCv7TuPjPwc5L1RGFPjmCi/95m8GTgM5qCIO/KS7+F2wGmwE6aykM/ku4+FNtBtcDOhNmuZ+8iov/qs1gVfm/34vqiIu/ntVfa0RnfsLgj8PFr1ibIw+CdGaWk77e11DYFcmXRcHfCRi/9ZznbEhnT4iCPwcY/waLv12QzgaIgn8zMP75Fn8NIJ39SxT83wHjtw78/wH7XhJCx4Hxz7P4GwI8ISmA+gPjT7b4w+w1u1oU/COA8YcSEozpbL0o+KOA8fv5k2GYzsKDxKDfS0FWG/IiqLOKYuAfBI2/B5kA6kyQcx7DofEftTaqhdQnYuBvBI1/KvkrqLP+YuBvBo3/HuiUv6I8KQb+mdD4NwD2bS5QCxHoR0PTV06Rz1CtdRABf3ts/BdIK1Rr6fLLz+tKwv02yRUB/zxs/KnkCqo1Q2v+6ZtN2PgzyFew3jbJnV7e1gzyLqy3nvzj/yM4/s7AC5Kh/K/65IHjD4A841OgCbzTbwFO3/J5vQTX3ETe8Wei408G7OBWpPq8H/Jfjo6/L2kI7O4a3/THmtDx7yCRwO728I3/Hjp9JRTyfG+hIqtxjX8kPP4+pAqyPa6XfaL94PGbiAHZ3hWe8R+Dp6/4kRBkewaeqzsm4+PvTupB+6vEL/2/4NNXmpAUaH+RZm7xJ3GAvyVkQd8SmsUr/ZeqcIA/gYzHNjjEn1P873FAX1kF/4Gylk/68ZE84L9JroI7zONz4v88D/SVPBKAbpHL015h/bjA/w7prMjH3weXevN1ArfHbJF+xx/9avX5wH8Af01aWRLIHf7HfNBXDpJUfJPreKMfU4MT/GfI915/wUydPTdZ18JSyljO8JdD396Q7d02D/L6EZzF3u8w3aSW9XlY8fPiVZpvcZIv+pfq6kpY1SnzE/9u/YcX7PWqWyfJIa+/YYoW7R/u/aSZpiWG6uO4wj9d+6Ny/9m7XYr2tw/wOprXKMxPpNrlZuCb6e94vAduHk+DP21LfSkjT3WoaP8z13gdTTa56/UYpjZlxkX/OT+3r0f3mMzRjM9lTxO0o8G+c03L3qiC96eOXiGjFQp/Y47UtX2jjao3GkZEc4N/vyep6dtqzuiuTm501Ptk0sgD7wdZ6DRVwYtm9VT3RchNlc/b4eqSYkhefOyDxq7uNN/7ZB6RgRSGl11cJqz11Pfuu38NfMgH/SAVR2ar505atzPG3Z0CY70P5ghpTgH/D26zZnkNbHFdW7rJES7w91YxnK+l6k7/pgCmNqGx07tlmKof3HrqqY3Oh8wneDjwGxfifjivUhRKgYdbwtA45ZWj+kcHD81e3NfZIBVetRyflw4/UXI4r05dKTyW1uJ5NE54b/Xsp0e//UPn7mVu4rcMHv/XDt58/Y9d03JY6ToFLFctcTZSiGPo4fHPDxw66/c37ZcKGqK393rF/ldXGbFnuNbK1P4LKGD5iVDakKyxOUfNAb2TSuThV+yl37f6FFsd/+nunWYd91pJg8pcS6BKNAI1idGeicZZs5OG5L8HdiHTr1mwa3ZmgzErv9R7swwaVBpZAs2isrL8WG9uV5x/P8+kfItL33+15Vtq9ZiPymV+8jaVo5eZtF4zyqry2K8fNu3NWrD4J8xOG1ZuN6PTXPE3SyRK7TxyiJRqtalLhYn1g9xMB3+AhKpeY6ggMRitsShtTOskqapVPJ1ztztswSi18fxKYlUrSkeE5tmCzaUTTJyuzN6WcQcdIL/Yop2ihP+EBKtO2ZSAXLRFm0wpmpImyapaN6L08Cs3bOHSaOHfXkGyVaGztHh8YAt3i1Y4Hk/r0VdMS1o4BuavrVGrPboqTNJ1q9do0QgJzg+YS+3xPyvpulPrPrRg5BVEnE4Nf1QbydeN9lCDsaUgIsVGnnskX9e6Ta8g2IaCkKPp4febJgm7FMW+eoXjcJo9RzrLwZ8rUXwSlaKtczSLkN2TjJ0rjGKZvdiiqBsp4k+RX3/OdZ0iiJ+KoqZTjKpMkpSdqSnN3hrFjbKW0sRfMNcoVVZnaGJILAr7NFX8C8wStEPR7fb+TVHceLotPSZK0o5UM4EmBL8Sm2bp9nL0uyZZO9BxqhCSS0TuSTWyskS+/stqBd1XcMkv8M108fNWqY2GalHupru0ROw4yvgNWZJ3KaVTRvBiidj+EZSDJ4yVwO2URbmhXqTd5HtbyviVTyXxkhqbQDn/DezCz6GNn5dSTZREve3Xdbvwy6jj71NRQi9SIvX0T7CLb6bfdixAbvwrVI86tJMfYrR3sJA6fuUPknvBmI9+O60ppSxMpI/fcFiSt6kb/dyXbo6bQ9+CEtpUorfoLoPUl26PFs3AgzIlUMIn4+oyyHzr0i7usOD/rKTfawiDvFcuY2MiC/yy5It/MxZpr1TGRxoT/PV6+Dj+p5ikvV0ZH8a6TIxcru3T9IczSXodB1MuB5k4UZJ8mf7H4UxynurASjYb/Epv36U/MJZNyjc78NKREX4/ny360TiZUcpfdeRmCCMzkT66+GPcyCjhdxzaSWfkRlkf44v0/Vuxyrfj2ZaVrOwo/X3x3OcuZul2/N/WHM7M0I++R38fs2TXNTp2tJyZI+VzX6O/m12umzmxNIudJZOPlfxcyi7Vtir+jtTVj52nqpV9SgwzXd1pp5EZipTwGun0lZQpkyO+bjjF/2V1mR3RZXLRNvqKTI/oOujig/SGTI/ocnW8pnEVmR+xFdLL1Xi0rUyQ2Ep1OR3xoUyQ2Nrket9piMyQyOruZnF1tUyRyGrlZjI6R6ZIZJ1zgz+spcyRuJoZjLnxXIqK3O+r6CGTJKwMA90vRW+UaRJVW1XsRNgk0ySq1DTSM0bKPImplGpqNiKtkYkSU+qq6YySiRJTb6nbh/iuzJSI+lXlNtREmSoRpbaQZnwEfW8XKvmUPqOf4SgzcMkJHzvm+QT9DJ9Sba6FSeIXDb8pWr27nhK/aPg96Z83TeIXDf8oT+wdkPjFwr/cI3t7JX6x8Gd55q+yxC8S/jwP/b0u8YuEf7iH/sJ2SPzi4E/wuHb2NolfHPzHPDY4to7ELwr+es09d3hK4hcF/yENDh/Wk/jFwB+hqWfmPolfDPz7NVlsHinxi4A/paY2j3+W+EXAr7Vkeu1YiZ9//DXitZrcIPHzj/95zSbNDSV+3vE/adTucp3Ezzv+WTpcVusn8fON/w1djbIzJX6+8d/QZTP4ssTPM/7cIH0+0yR+nvG302u0gcTPL/4vdBu9Zfp/e+f+FFUZxvF3l9Vid1kWEAGRuCOgroIoF7kKiiuKJiKIGIqA4gWTEAxtHJVLiEiNomIqXsAbNVI65AW0mrymeZlGLW0SzEpnnMoxq5km+6GZZpo0Fc553uc9+3z+guf7/e455z3P8553KX5R47eVwNUCil/U+AslqDRoCMUvZvz+kvxB3gKKX8z4B0lSqn4hxS9i/NOspKl1NcUvYvz7pCq2jeIXL/5bkhW7xIviFy1+hybpqh1L8YsW/y8SVmuYRvGLFX+5XspyKxwpfpHit8+Vtt5oil+k+HdKXK/bZIpfnPjvaaUuOJziFyZ+TYv0FZ+i+EWJf6QMFQf6U/xixL94jBwlr6P4xYi/Xp6ap1D8IsR/XqaaE+hfvgTAaahcv9lWMhc/M+S7ZzWTu9g5KeMjy/gD+YubDVo5lyznbMlhzDjnyrtk/Ygsxsx0md9YVNvJY7ysUcn9xhpsRy5jxbtI/o5FPdmMlesQHaur5DNOmkEalsaF5DRGdmtB4mcpfclrfNgdgxpYvKUht7GhjoUbWGWT3djYDzivVPUjv3FxVgUYPxszmRzHRKQrA8XHgTzHg2c89H6VGjIdD1Hw+5XWkutY+JbDdjXdOxwF+1kjYwJHM7YbeGxXDIzkp3gTtr2bjfy8+HoMH8kp/LZ+LsMW/0FuVvgf46U5bhQvzUexxV/IywmHa/xEZ/Lq/q7EFv8VXr3e6zxVv8dJdRu2+Hm1Qdfzlf0xH9UjsMVfzseHPM6y9YO5yI7AFj+fLXAvW/HW7TGNi3B3XOmHcjGh3Mhf+Ut+PJSn44r/OA8PZmVgkH7Hn4P0I7ji38XBgj0pOLRncXjwXcUVvxneAe94LOLTB4KL34Ar/lXgBrhU4FG/D3z6r0nAlL4JfsJ/GJP+WGdo/VMxya+GVj9qIq6732v2wAYUY1IfAizeph1b3yNZDeuArxaPdg8vWO3qKIaOH4HHP5l4pANvfNNUMoT8brFTH+B5zxsMJdWg938bNGt/kyPonf97hpQaUB/Q7Pg5Cqna/iuGluG2gEZM0OEQrYVsejtfZ4iZCbkGHoRDcwegZIdtDDWzfeG8uKfHoNgwC07xwNsMOff7wLnxvoV1/OzSGXp8nOCe/ghaPx6LweT6ZzEBGD0AzJDv+KtdCibWL4YJgelFsLmXibfWHmCfOty8wQQh6EMoT6bwlvoNlNI1rkwYdKegXOE8/DgNpXOkgYlEJ9Ri+CWeKpuAtjlpGplgbAZqAL6i4qfR6iegVl8yE45aoAYAx9Y/ULPf7jYTkLtlMBOwWF4CW2F2OEy+w4Rk6A6Yi4PT+3AdzOGmK0KZoGjngxi0iotBGTC9/iQtE5cOGwiLRrhxaPY2QCizXcCE5ucICJeW9wa/sT0AnvO5jAAAA81JREFUGWpMYoKTAXIAWAhwV0QH8l17yVAmPIY0CKfO9oLU5HYIQtMLeqYEkj0h2j9GOEHuEO2ecVFMIfSE+ALyMtidsmg3gJzIOUwxBJ0FMKysDujHDHGeRZsrUxJbAPaAurRCKBkOMOZxqGYK4y7AGUCag7IfdaQPALj0rUczxdE7GqBFvn2uvCJMFwCGGGd0TImEA2wCtBsup4J1AG3+CS1MoQS2Adw5i2WbAGT8AVD+sBymXAYBtAC8N8tSuqoSYAPDuEqmaGIuA1xBFxZJX3j6qwCF70hhCkd/CeAYKPVFibcA3kgCWLd6fmHFlM+SNQDXkVdhoHQVh6ZBnFwV1sQsg6mJAG76Rkv0b/bB+RDH1sm0YkHJ58UQEzPnkT7dL/Vcki1EreZQZknMqALZKvVJcrcGwdrSFSBljv+TWRgea2FOAurzQVxXSzz80AWkRHVaf2Z5xFk/gqEq7fZzL6mtZudDHVTfcJ9ZJKpKsG/jE988/RyvgnMrb4EdUh4xVcUsFfedgGcBvz3vyKKnDlN6n6veCnhay6gv+zNL5jPY43BtU/c21vsEPa6SoNx3G/em2oCWM+wYs3RWL3wEjmdkSUhSQXbjpvXrNzVmFySFlER6wleRWssIpl/g/cgCcTpiRdn/fd+N9rK08L0CXCn3fyh63daSwnfOS6DM/4Xpob2lhG/THEx5//clYK+jJYTvmLSEsn4so4vVSg9fbY6hnJ9IzzaNksPXDJtDGf8vuVttFPvMn+9D+T6V4OiBSgzfJWAuZftso4BLVUoLf/x0d8r1mTGU7lZS+NbJBsr0OWcBgxWyCtT0a6E0u0BdXh/xw7fLr6Mku4i2tETsC/9BaS9KsTvEBDiJGr7/mR6UX7fRZS4XsBmoDvtNR9lJQ9NSP7HCr8o2UWoSojqet0eU7CPyD6soMamxmr1SgGWA/8l9lL1M6MMvJmLO3rt5op5SkrUfOPOqHc7sE6/EUm8P4ikQt7QB2buAekf2JNq5CUdojXkIluyd5pWGUiLgN4FrnSu43wQcRyxLp6UeLwLr0xq4bRG1uVyQmUMZcMa4elmYC3T0fQ/tbzGS91geBFkbzWBfZpZt3ZhF6zx0FB0Y++unsu4UtLlpHnugiJzGi85nc0CYDH8gNOBQQE0WDXEEWRK2bCk8US7Jp6PeDScCtrQEkqfi4dGzdVfB+dQuLQz7poYU7Grv6UEuCo9bcG54VEdnnnl5+SzfJ/YK1L5l5WHm/M6OqPDcYC25plAMxpwEU0x8RVzttvb2bbVxFfExpowcoyU27P8C6rIKu/5ZqAwAAAAASUVORK5CYII=;" parent="dMxsjKUCfSVT_WvYJcaO-1" vertex="1">
          <mxGeometry x="60" y="210" width="40" height="40.16" as="geometry" />
        </mxCell>
        <mxCell id="sM68YDgqJwR2TVpxMyUJ-2" style="edgeStyle=orthogonalEdgeStyle;rounded=0;orthogonalLoop=1;jettySize=auto;html=1;exitX=0.5;exitY=1;exitDx=0;exitDy=0;startArrow=oval;startFill=1;endArrow=oval;endFill=1;strokeWidth=1;fontSize=13;fillColor=#dae8fc;strokeColor=#6c8ebf;" parent="dMxsjKUCfSVT_WvYJcaO-1" source="sM68YDgqJwR2TVpxMyUJ-0" edge="1">
          <mxGeometry relative="1" as="geometry">
            <mxPoint x="80" y="300" as="targetPoint" />
            <mxPoint x="340" y="380" as="sourcePoint" />
            <Array as="points">
              <mxPoint x="80" y="250" />
              <mxPoint x="80" y="250" />
            </Array>
          </mxGeometry>
        </mxCell>
        <mxCell id="-b4encV27sLXHriJCV_K-3" style="edgeStyle=orthogonalEdgeStyle;rounded=0;orthogonalLoop=1;jettySize=auto;html=1;fontSize=15;" parent="dMxsjKUCfSVT_WvYJcaO-1" source="-b4encV27sLXHriJCV_K-0" target="dMxsjKUCfSVT_WvYJcaO-56" edge="1">
          <mxGeometry relative="1" as="geometry" />
        </mxCell>
        <mxCell id="-b4encV27sLXHriJCV_K-0" value="" style="aspect=fixed;perimeter=ellipsePerimeter;html=1;align=center;shadow=0;dashed=0;spacingTop=3;image;image=img/lib/active_directory/generic_server.svg;labelBackgroundColor=#FFFFFF;strokeWidth=1;fillColor=#3399FF;fontSize=15;" parent="dMxsjKUCfSVT_WvYJcaO-1" vertex="1">
          <mxGeometry x="610" y="627" width="28.000000000000004" height="49" as="geometry" />
        </mxCell>
        <mxCell id="-b4encV27sLXHriJCV_K-1" value="&lt;span style=&quot;color: rgb(0 , 0 , 0) ; font-style: normal ; font-weight: 400 ; letter-spacing: normal ; text-align: center ; text-indent: 0px ; text-transform: none ; word-spacing: 0px ; background-color: rgb(255 , 255 , 255) ; font-family: &amp;#34;droid sans mono&amp;#34; , monospace , monospace , &amp;#34;droid sans fallback&amp;#34;&quot;&gt;&lt;font style=&quot;font-size: 10px&quot;&gt;/kubedata/mubSharedData&lt;/font&gt;&lt;/span&gt;" style="text;whiteSpace=wrap;html=1;fontSize=15;" parent="dMxsjKUCfSVT_WvYJcaO-1" vertex="1">
          <mxGeometry x="576" y="667" width="150" height="40" as="geometry" />
        </mxCell>
      </root>
    </mxGraphModel>
  </diagram>
  <diagram id="VA3Ss13xlEVhVxmIcJDw" name="interconnections">
    <mxGraphModel dx="1434" dy="854" grid="1" gridSize="10" guides="1" tooltips="1" connect="1" arrows="1" fold="1" page="1" pageScale="1" pageWidth="827" pageHeight="1169" math="0" shadow="0">
      <root>
        <mxCell id="0" />
        <mxCell id="1" parent="0" />
        <mxCell id="cK7Q-3on8uLJFIcGsVku-2" value="Microservice Application" style="rounded=0;whiteSpace=wrap;html=1;labelBackgroundColor=none;verticalAlign=bottom;fillColor=none;dashed=1;" parent="1" vertex="1">
          <mxGeometry x="365" y="410" width="625" height="240" as="geometry" />
        </mxCell>
        <mxCell id="TttHaPjGkMLVzVqfXZJU-33" value="User" style="rounded=0;whiteSpace=wrap;html=1;labelBackgroundColor=none;verticalAlign=bottom;fillColor=none;dashed=1;" parent="1" vertex="1">
          <mxGeometry x="180" y="95" width="140" height="240" as="geometry" />
        </mxCell>
        <mxCell id="TttHaPjGkMLVzVqfXZJU-34" value="Microservice Application" style="rounded=0;whiteSpace=wrap;html=1;labelBackgroundColor=none;verticalAlign=bottom;fillColor=none;dashed=1;" parent="1" vertex="1">
          <mxGeometry x="360" y="95" width="530" height="240" as="geometry" />
        </mxCell>
        <mxCell id="TttHaPjGkMLVzVqfXZJU-5" value="" style="edgeStyle=orthogonalEdgeStyle;rounded=0;orthogonalLoop=1;jettySize=auto;html=1;" parent="1" source="TttHaPjGkMLVzVqfXZJU-1" target="TttHaPjGkMLVzVqfXZJU-4" edge="1">
          <mxGeometry relative="1" as="geometry" />
        </mxCell>
        <mxCell id="TttHaPjGkMLVzVqfXZJU-10" value="REST" style="edgeLabel;html=1;align=center;verticalAlign=bottom;resizable=0;points=[];labelBackgroundColor=none;" parent="TttHaPjGkMLVzVqfXZJU-5" vertex="1" connectable="0">
          <mxGeometry x="0.07" relative="1" as="geometry">
            <mxPoint x="2" as="offset" />
          </mxGeometry>
        </mxCell>
        <mxCell id="TttHaPjGkMLVzVqfXZJU-1" value="Runner" style="rounded=0;whiteSpace=wrap;html=1;fillColor=#f8cecc;strokeColor=#b85450;" parent="1" vertex="1">
          <mxGeometry x="210" y="190" width="80" height="50" as="geometry" />
        </mxCell>
        <mxCell id="TttHaPjGkMLVzVqfXZJU-2" value="API&lt;br&gt;Gateway" style="rounded=0;whiteSpace=wrap;html=1;verticalAlign=top;fillColor=#d5e8d4;strokeColor=#82b366;" parent="1" vertex="1">
          <mxGeometry x="420" y="115" width="120" height="200" as="geometry" />
        </mxCell>
        <mxCell id="TttHaPjGkMLVzVqfXZJU-7" value="" style="edgeStyle=orthogonalEdgeStyle;rounded=0;orthogonalLoop=1;jettySize=auto;html=1;" parent="1" source="TttHaPjGkMLVzVqfXZJU-4" target="TttHaPjGkMLVzVqfXZJU-6" edge="1">
          <mxGeometry relative="1" as="geometry" />
        </mxCell>
        <mxCell id="TttHaPjGkMLVzVqfXZJU-11" value="REST" style="edgeLabel;html=1;align=center;verticalAlign=bottom;resizable=0;points=[];labelBackgroundColor=none;" parent="TttHaPjGkMLVzVqfXZJU-7" vertex="1" connectable="0">
          <mxGeometry x="-0.0437" y="1" relative="1" as="geometry">
            <mxPoint as="offset" />
          </mxGeometry>
        </mxCell>
        <mxCell id="TttHaPjGkMLVzVqfXZJU-4" value="NGINX&lt;br&gt;Gateway" style="rounded=0;whiteSpace=wrap;html=1;" parent="1" vertex="1">
          <mxGeometry x="380" y="190" width="80" height="50" as="geometry" />
        </mxCell>
        <mxCell id="TttHaPjGkMLVzVqfXZJU-13" value="" style="edgeStyle=orthogonalEdgeStyle;rounded=0;orthogonalLoop=1;jettySize=auto;html=1;" parent="1" source="TttHaPjGkMLVzVqfXZJU-6" target="TttHaPjGkMLVzVqfXZJU-12" edge="1">
          <mxGeometry relative="1" as="geometry">
            <Array as="points">
              <mxPoint x="600" y="215" />
              <mxPoint x="600" y="160" />
            </Array>
          </mxGeometry>
        </mxCell>
        <mxCell id="TttHaPjGkMLVzVqfXZJU-15" value="" style="edgeStyle=orthogonalEdgeStyle;rounded=0;orthogonalLoop=1;jettySize=auto;html=1;" parent="1" source="TttHaPjGkMLVzVqfXZJU-6" target="TttHaPjGkMLVzVqfXZJU-14" edge="1">
          <mxGeometry relative="1" as="geometry">
            <Array as="points">
              <mxPoint x="600" y="215" />
              <mxPoint x="600" y="280" />
            </Array>
          </mxGeometry>
        </mxCell>
        <mxCell id="TttHaPjGkMLVzVqfXZJU-16" value="REST" style="edgeLabel;html=1;align=center;verticalAlign=middle;resizable=0;points=[];labelBackgroundColor=none;" parent="TttHaPjGkMLVzVqfXZJU-15" vertex="1" connectable="0">
          <mxGeometry x="0.5328" y="1" relative="1" as="geometry">
            <mxPoint y="-9" as="offset" />
          </mxGeometry>
        </mxCell>
        <mxCell id="TttHaPjGkMLVzVqfXZJU-17" value="or gRPC" style="edgeLabel;html=1;align=center;verticalAlign=middle;resizable=0;points=[];labelBackgroundColor=none;" parent="TttHaPjGkMLVzVqfXZJU-15" vertex="1" connectable="0">
          <mxGeometry x="0.2737" relative="1" as="geometry">
            <mxPoint x="20" y="10" as="offset" />
          </mxGeometry>
        </mxCell>
        <mxCell id="TttHaPjGkMLVzVqfXZJU-18" value="REST" style="edgeLabel;html=1;align=center;verticalAlign=middle;resizable=0;points=[];labelBackgroundColor=none;" parent="TttHaPjGkMLVzVqfXZJU-15" vertex="1" connectable="0">
          <mxGeometry x="0.5328" y="1" relative="1" as="geometry">
            <mxPoint x="3" y="-129" as="offset" />
          </mxGeometry>
        </mxCell>
        <mxCell id="TttHaPjGkMLVzVqfXZJU-19" value="or gRPC" style="edgeLabel;html=1;align=center;verticalAlign=middle;resizable=0;points=[];labelBackgroundColor=none;" parent="TttHaPjGkMLVzVqfXZJU-15" vertex="1" connectable="0">
          <mxGeometry x="0.2737" relative="1" as="geometry">
            <mxPoint x="23" y="-110" as="offset" />
          </mxGeometry>
        </mxCell>
        <mxCell id="TttHaPjGkMLVzVqfXZJU-22" value="REST" style="edgeLabel;html=1;align=center;verticalAlign=middle;resizable=0;points=[];labelBackgroundColor=none;" parent="TttHaPjGkMLVzVqfXZJU-15" vertex="1" connectable="0">
          <mxGeometry x="0.5328" y="1" relative="1" as="geometry">
            <mxPoint x="133" y="-129" as="offset" />
          </mxGeometry>
        </mxCell>
        <mxCell id="TttHaPjGkMLVzVqfXZJU-23" value="or gRPC" style="edgeLabel;html=1;align=center;verticalAlign=middle;resizable=0;points=[];labelBackgroundColor=none;" parent="TttHaPjGkMLVzVqfXZJU-15" vertex="1" connectable="0">
          <mxGeometry x="0.2737" relative="1" as="geometry">
            <mxPoint x="153" y="-110" as="offset" />
          </mxGeometry>
        </mxCell>
        <mxCell id="TttHaPjGkMLVzVqfXZJU-31" value="REST" style="edgeLabel;html=1;align=center;verticalAlign=middle;resizable=0;points=[];labelBackgroundColor=none;" parent="TttHaPjGkMLVzVqfXZJU-15" vertex="1" connectable="0">
          <mxGeometry x="0.5328" y="1" relative="1" as="geometry">
            <mxPoint x="133" y="-9" as="offset" />
          </mxGeometry>
        </mxCell>
        <mxCell id="TttHaPjGkMLVzVqfXZJU-32" value="or gRPC" style="edgeLabel;html=1;align=center;verticalAlign=middle;resizable=0;points=[];labelBackgroundColor=none;" parent="TttHaPjGkMLVzVqfXZJU-15" vertex="1" connectable="0">
          <mxGeometry x="0.2737" relative="1" as="geometry">
            <mxPoint x="153" y="10" as="offset" />
          </mxGeometry>
        </mxCell>
        <mxCell id="cK7Q-3on8uLJFIcGsVku-67" value="REST" style="edgeLabel;html=1;align=center;verticalAlign=middle;resizable=0;points=[];labelBackgroundColor=none;" parent="TttHaPjGkMLVzVqfXZJU-15" vertex="1" connectable="0">
          <mxGeometry x="0.5328" y="1" relative="1" as="geometry">
            <mxPoint x="24" y="191" as="offset" />
          </mxGeometry>
        </mxCell>
        <mxCell id="cK7Q-3on8uLJFIcGsVku-68" value="or gRPC" style="edgeLabel;html=1;align=center;verticalAlign=middle;resizable=0;points=[];labelBackgroundColor=none;" parent="TttHaPjGkMLVzVqfXZJU-15" vertex="1" connectable="0">
          <mxGeometry x="0.2737" relative="1" as="geometry">
            <mxPoint x="44" y="210" as="offset" />
          </mxGeometry>
        </mxCell>
        <mxCell id="TttHaPjGkMLVzVqfXZJU-6" value="s0" style="rounded=1;whiteSpace=wrap;html=1;fillColor=#fff2cc;strokeColor=#d6b656;" parent="1" vertex="1">
          <mxGeometry x="510" y="190" width="60" height="50" as="geometry" />
        </mxCell>
        <mxCell id="TttHaPjGkMLVzVqfXZJU-21" value="" style="edgeStyle=orthogonalEdgeStyle;rounded=0;orthogonalLoop=1;jettySize=auto;html=1;" parent="1" source="TttHaPjGkMLVzVqfXZJU-12" target="TttHaPjGkMLVzVqfXZJU-20" edge="1">
          <mxGeometry relative="1" as="geometry" />
        </mxCell>
        <mxCell id="TttHaPjGkMLVzVqfXZJU-12" value="s1" style="rounded=1;whiteSpace=wrap;html=1;fillColor=#fff2cc;strokeColor=#d6b656;" parent="1" vertex="1">
          <mxGeometry x="680" y="135" width="60" height="50" as="geometry" />
        </mxCell>
        <mxCell id="TttHaPjGkMLVzVqfXZJU-25" value="" style="edgeStyle=orthogonalEdgeStyle;rounded=0;orthogonalLoop=1;jettySize=auto;html=1;" parent="1" source="TttHaPjGkMLVzVqfXZJU-14" target="TttHaPjGkMLVzVqfXZJU-24" edge="1">
          <mxGeometry relative="1" as="geometry" />
        </mxCell>
        <mxCell id="TttHaPjGkMLVzVqfXZJU-14" value="s2" style="rounded=1;whiteSpace=wrap;html=1;fillColor=#fff2cc;strokeColor=#d6b656;" parent="1" vertex="1">
          <mxGeometry x="680" y="255" width="60" height="50" as="geometry" />
        </mxCell>
        <mxCell id="TttHaPjGkMLVzVqfXZJU-20" value="s3" style="rounded=1;whiteSpace=wrap;html=1;fillColor=#fff2cc;strokeColor=#d6b656;" parent="1" vertex="1">
          <mxGeometry x="810" y="135" width="60" height="50" as="geometry" />
        </mxCell>
        <mxCell id="TttHaPjGkMLVzVqfXZJU-24" value="s4" style="rounded=1;whiteSpace=wrap;html=1;fillColor=#fff2cc;strokeColor=#d6b656;" parent="1" vertex="1">
          <mxGeometry x="810" y="255" width="60" height="50" as="geometry" />
        </mxCell>
        <mxCell id="cK7Q-3on8uLJFIcGsVku-1" value="User" style="rounded=0;whiteSpace=wrap;html=1;labelBackgroundColor=none;verticalAlign=bottom;fillColor=none;dashed=1;" parent="1" vertex="1">
          <mxGeometry x="185" y="410" width="140" height="240" as="geometry" />
        </mxCell>
        <mxCell id="cK7Q-3on8uLJFIcGsVku-3" value="" style="edgeStyle=orthogonalEdgeStyle;rounded=0;orthogonalLoop=1;jettySize=auto;html=1;" parent="1" source="cK7Q-3on8uLJFIcGsVku-5" target="cK7Q-3on8uLJFIcGsVku-9" edge="1">
          <mxGeometry relative="1" as="geometry" />
        </mxCell>
        <mxCell id="cK7Q-3on8uLJFIcGsVku-4" value="REST" style="edgeLabel;html=1;align=center;verticalAlign=bottom;resizable=0;points=[];labelBackgroundColor=none;" parent="cK7Q-3on8uLJFIcGsVku-3" vertex="1" connectable="0">
          <mxGeometry x="0.07" relative="1" as="geometry">
            <mxPoint x="2" as="offset" />
          </mxGeometry>
        </mxCell>
        <mxCell id="cK7Q-3on8uLJFIcGsVku-5" value="Runner" style="rounded=0;whiteSpace=wrap;html=1;fillColor=#f8cecc;strokeColor=#b85450;" parent="1" vertex="1">
          <mxGeometry x="215" y="505" width="80" height="50" as="geometry" />
        </mxCell>
        <mxCell id="cK7Q-3on8uLJFIcGsVku-6" value="API&lt;br&gt;Gateway" style="rounded=0;whiteSpace=wrap;html=1;verticalAlign=top;fillColor=#d5e8d4;strokeColor=#82b366;" parent="1" vertex="1">
          <mxGeometry x="425" y="430" width="120" height="200" as="geometry" />
        </mxCell>
        <mxCell id="cK7Q-3on8uLJFIcGsVku-7" value="" style="edgeStyle=orthogonalEdgeStyle;rounded=0;orthogonalLoop=1;jettySize=auto;html=1;" parent="1" source="cK7Q-3on8uLJFIcGsVku-9" target="cK7Q-3on8uLJFIcGsVku-20" edge="1">
          <mxGeometry relative="1" as="geometry" />
        </mxCell>
        <mxCell id="cK7Q-3on8uLJFIcGsVku-8" value="REST" style="edgeLabel;html=1;align=center;verticalAlign=bottom;resizable=0;points=[];labelBackgroundColor=none;" parent="cK7Q-3on8uLJFIcGsVku-7" vertex="1" connectable="0">
          <mxGeometry x="-0.0437" y="1" relative="1" as="geometry">
            <mxPoint as="offset" />
          </mxGeometry>
        </mxCell>
        <mxCell id="cK7Q-3on8uLJFIcGsVku-9" value="NGINX&lt;br&gt;Gateway" style="rounded=0;whiteSpace=wrap;html=1;" parent="1" vertex="1">
          <mxGeometry x="390" y="492.5" width="80" height="75" as="geometry" />
        </mxCell>
        <mxCell id="cK7Q-3on8uLJFIcGsVku-32" value="" style="group" parent="1" vertex="1" connectable="0">
          <mxGeometry x="510" y="491.5" width="97" height="77.5" as="geometry" />
        </mxCell>
        <mxCell id="cK7Q-3on8uLJFIcGsVku-61" value="" style="group" parent="cK7Q-3on8uLJFIcGsVku-32" vertex="1" connectable="0">
          <mxGeometry width="97" height="77.5" as="geometry" />
        </mxCell>
        <mxCell id="cK7Q-3on8uLJFIcGsVku-64" value="" style="group" parent="cK7Q-3on8uLJFIcGsVku-61" vertex="1" connectable="0">
          <mxGeometry width="97" height="77.5" as="geometry" />
        </mxCell>
        <mxCell id="cK7Q-3on8uLJFIcGsVku-20" value="s0" style="rounded=1;whiteSpace=wrap;html=1;fillColor=#fff2cc;strokeColor=#d6b656;verticalAlign=top;" parent="cK7Q-3on8uLJFIcGsVku-64" vertex="1">
          <mxGeometry width="97" height="77.5" as="geometry" />
        </mxCell>
        <mxCell id="cK7Q-3on8uLJFIcGsVku-29" value="&lt;font style=&quot;font-size: 10px&quot;&gt;internal-service&lt;/font&gt;" style="rounded=0;whiteSpace=wrap;html=1;verticalAlign=middle;fillColor=#dae8fc;strokeColor=#6c8ebf;" parent="cK7Q-3on8uLJFIcGsVku-64" vertex="1">
          <mxGeometry x="8.5" y="25" width="80" height="20" as="geometry" />
        </mxCell>
        <mxCell id="cK7Q-3on8uLJFIcGsVku-30" value="&lt;font style=&quot;font-size: 9px&quot;&gt;external-services&lt;/font&gt;" style="rounded=0;whiteSpace=wrap;html=1;verticalAlign=middle;fillColor=#f8cecc;strokeColor=#b85450;" parent="cK7Q-3on8uLJFIcGsVku-64" vertex="1">
          <mxGeometry x="8.5" y="50.5" width="80" height="20" as="geometry" />
        </mxCell>
        <mxCell id="cK7Q-3on8uLJFIcGsVku-72" value="" style="edgeStyle=orthogonalEdgeStyle;rounded=0;orthogonalLoop=1;jettySize=auto;html=1;" parent="1" source="cK7Q-3on8uLJFIcGsVku-62" target="cK7Q-3on8uLJFIcGsVku-71" edge="1">
          <mxGeometry relative="1" as="geometry" />
        </mxCell>
        <mxCell id="cK7Q-3on8uLJFIcGsVku-62" value="s1" style="rounded=1;whiteSpace=wrap;html=1;fillColor=#fff2cc;strokeColor=#d6b656;verticalAlign=top;" parent="1" vertex="1">
          <mxGeometry x="700" y="440" width="97" height="77.5" as="geometry" />
        </mxCell>
        <mxCell id="cK7Q-3on8uLJFIcGsVku-63" value="" style="edgeStyle=orthogonalEdgeStyle;rounded=0;orthogonalLoop=1;jettySize=auto;html=1;" parent="1" source="cK7Q-3on8uLJFIcGsVku-20" target="cK7Q-3on8uLJFIcGsVku-62" edge="1">
          <mxGeometry relative="1" as="geometry">
            <Array as="points">
              <mxPoint x="630" y="530" />
              <mxPoint x="630" y="479" />
            </Array>
          </mxGeometry>
        </mxCell>
        <mxCell id="cK7Q-3on8uLJFIcGsVku-76" value="" style="edgeStyle=orthogonalEdgeStyle;rounded=0;orthogonalLoop=1;jettySize=auto;html=1;" parent="1" source="cK7Q-3on8uLJFIcGsVku-65" target="cK7Q-3on8uLJFIcGsVku-75" edge="1">
          <mxGeometry relative="1" as="geometry" />
        </mxCell>
        <mxCell id="cK7Q-3on8uLJFIcGsVku-65" value="s2" style="rounded=1;whiteSpace=wrap;html=1;fillColor=#fff2cc;strokeColor=#d6b656;verticalAlign=top;" parent="1" vertex="1">
          <mxGeometry x="700" y="540" width="97" height="77.5" as="geometry" />
        </mxCell>
        <mxCell id="cK7Q-3on8uLJFIcGsVku-66" value="" style="edgeStyle=orthogonalEdgeStyle;rounded=0;orthogonalLoop=1;jettySize=auto;html=1;" parent="1" source="cK7Q-3on8uLJFIcGsVku-20" target="cK7Q-3on8uLJFIcGsVku-65" edge="1">
          <mxGeometry relative="1" as="geometry">
            <Array as="points">
              <mxPoint x="630" y="530" />
              <mxPoint x="630" y="579" />
            </Array>
          </mxGeometry>
        </mxCell>
        <mxCell id="cK7Q-3on8uLJFIcGsVku-69" value="REST" style="edgeLabel;html=1;align=center;verticalAlign=middle;resizable=0;points=[];labelBackgroundColor=none;" parent="1" vertex="1" connectable="0">
          <mxGeometry x="662.8557142857143" y="567.5" as="geometry" />
        </mxCell>
        <mxCell id="cK7Q-3on8uLJFIcGsVku-70" value="or gRPC" style="edgeLabel;html=1;align=center;verticalAlign=middle;resizable=0;points=[];labelBackgroundColor=none;" parent="1" vertex="1" connectable="0">
          <mxGeometry x="659.9985714285714" y="587.5" as="geometry" />
        </mxCell>
        <mxCell id="cK7Q-3on8uLJFIcGsVku-71" value="s3" style="rounded=1;whiteSpace=wrap;html=1;fillColor=#fff2cc;strokeColor=#d6b656;verticalAlign=top;" parent="1" vertex="1">
          <mxGeometry x="870" y="440" width="97" height="77.5" as="geometry" />
        </mxCell>
        <mxCell id="cK7Q-3on8uLJFIcGsVku-73" value="REST" style="edgeLabel;html=1;align=center;verticalAlign=middle;resizable=0;points=[];labelBackgroundColor=none;" parent="1" vertex="1" connectable="0">
          <mxGeometry x="829.8557142857142" y="468.75" as="geometry" />
        </mxCell>
        <mxCell id="cK7Q-3on8uLJFIcGsVku-74" value="or gRPC" style="edgeLabel;html=1;align=center;verticalAlign=middle;resizable=0;points=[];labelBackgroundColor=none;" parent="1" vertex="1" connectable="0">
          <mxGeometry x="826.9985714285713" y="488.75" as="geometry" />
        </mxCell>
        <mxCell id="cK7Q-3on8uLJFIcGsVku-75" value="s4" style="rounded=1;whiteSpace=wrap;html=1;fillColor=#fff2cc;strokeColor=#d6b656;verticalAlign=top;" parent="1" vertex="1">
          <mxGeometry x="870" y="540" width="97" height="77.5" as="geometry" />
        </mxCell>
        <mxCell id="cK7Q-3on8uLJFIcGsVku-77" value="REST" style="edgeLabel;html=1;align=center;verticalAlign=middle;resizable=0;points=[];labelBackgroundColor=none;" parent="1" vertex="1" connectable="0">
          <mxGeometry x="832.7157142857142" y="569" as="geometry" />
        </mxCell>
        <mxCell id="cK7Q-3on8uLJFIcGsVku-78" value="or gRPC" style="edgeLabel;html=1;align=center;verticalAlign=middle;resizable=0;points=[];labelBackgroundColor=none;" parent="1" vertex="1" connectable="0">
          <mxGeometry x="829.8585714285713" y="589" as="geometry" />
        </mxCell>
        <mxCell id="cK7Q-3on8uLJFIcGsVku-79" value="&lt;font style=&quot;font-size: 9px;&quot;&gt;internal-service&lt;/font&gt;" style="rounded=0;whiteSpace=wrap;html=1;verticalAlign=middle;fillColor=#dae8fc;strokeColor=#6c8ebf;fontSize=9;" parent="1" vertex="1">
          <mxGeometry x="708.5" y="466" width="80" height="20" as="geometry" />
        </mxCell>
        <mxCell id="cK7Q-3on8uLJFIcGsVku-80" value="&lt;font style=&quot;font-size: 9px;&quot;&gt;external-services&lt;/font&gt;" style="rounded=0;whiteSpace=wrap;html=1;verticalAlign=middle;fillColor=#f8cecc;strokeColor=#b85450;fontSize=9;" parent="1" vertex="1">
          <mxGeometry x="708.5" y="491.5" width="80" height="20" as="geometry" />
        </mxCell>
        <mxCell id="cK7Q-3on8uLJFIcGsVku-81" value="&lt;font style=&quot;font-size: 9px;&quot;&gt;internal-service&lt;/font&gt;" style="rounded=0;whiteSpace=wrap;html=1;verticalAlign=middle;fillColor=#dae8fc;strokeColor=#6c8ebf;fontSize=9;" parent="1" vertex="1">
          <mxGeometry x="708.5" y="566.25" width="80" height="20" as="geometry" />
        </mxCell>
        <mxCell id="cK7Q-3on8uLJFIcGsVku-82" value="&lt;font style=&quot;font-size: 9px;&quot;&gt;external-services&lt;/font&gt;" style="rounded=0;whiteSpace=wrap;html=1;verticalAlign=middle;fillColor=#f8cecc;strokeColor=#b85450;fontSize=9;" parent="1" vertex="1">
          <mxGeometry x="708.5" y="591.75" width="80" height="20" as="geometry" />
        </mxCell>
        <mxCell id="cK7Q-3on8uLJFIcGsVku-83" value="&lt;font style=&quot;font-size: 9px;&quot;&gt;internal-service&lt;/font&gt;" style="rounded=0;whiteSpace=wrap;html=1;verticalAlign=middle;fillColor=#dae8fc;strokeColor=#6c8ebf;fontSize=9;" parent="1" vertex="1">
          <mxGeometry x="878.5" y="468.75" width="80" height="20" as="geometry" />
        </mxCell>
        <mxCell id="cK7Q-3on8uLJFIcGsVku-84" value="&lt;font style=&quot;font-size: 9px;&quot;&gt;internal-service&lt;/font&gt;" style="rounded=0;whiteSpace=wrap;html=1;verticalAlign=middle;fillColor=#dae8fc;strokeColor=#6c8ebf;fontSize=9;" parent="1" vertex="1">
          <mxGeometry x="878.5" y="568.75" width="80" height="20" as="geometry" />
        </mxCell>
        <mxCell id="f1Og8HxGCwJFs7XPGFhU-17" style="edgeStyle=orthogonalEdgeStyle;rounded=0;orthogonalLoop=1;jettySize=auto;html=1;entryX=0;entryY=0.5;entryDx=0;entryDy=0;" parent="1" source="y0YYO1Ww3dnOjLkofNNx-9" target="y0YYO1Ww3dnOjLkofNNx-13" edge="1">
          <mxGeometry relative="1" as="geometry" />
        </mxCell>
        <mxCell id="y0YYO1Ww3dnOjLkofNNx-9" value="NGINX&lt;br&gt;API&lt;br&gt;Gateway" style="rounded=0;whiteSpace=wrap;html=1;fillColor=#d5e8d4;verticalAlign=middle;strokeColor=#82b366;" parent="1" vertex="1">
          <mxGeometry x="364" y="801" width="80" height="77" as="geometry" />
        </mxCell>
        <mxCell id="y0YYO1Ww3dnOjLkofNNx-17" value="&lt;b&gt;sdb1&lt;/b&gt;" style="rounded=1;whiteSpace=wrap;html=1;fillColor=#fff2cc;strokeColor=#d6b656;verticalAlign=top;" parent="1" vertex="1">
          <mxGeometry x="630" y="750" width="97" height="77.5" as="geometry" />
        </mxCell>
        <mxCell id="y0YYO1Ww3dnOjLkofNNx-18" value="" style="edgeStyle=orthogonalEdgeStyle;rounded=0;orthogonalLoop=1;jettySize=auto;html=1;" parent="1" source="y0YYO1Ww3dnOjLkofNNx-13" target="y0YYO1Ww3dnOjLkofNNx-17" edge="1">
          <mxGeometry relative="1" as="geometry">
            <Array as="points">
              <mxPoint x="599" y="860" />
              <mxPoint x="599" y="789" />
            </Array>
          </mxGeometry>
        </mxCell>
        <mxCell id="y0YYO1Ww3dnOjLkofNNx-20" value="&lt;b&gt;s1&lt;/b&gt;" style="rounded=1;whiteSpace=wrap;html=1;fillColor=#fff2cc;strokeColor=#d6b656;verticalAlign=top;" parent="1" vertex="1">
          <mxGeometry x="630" y="850" width="97" height="77.5" as="geometry" />
        </mxCell>
        <mxCell id="y0YYO1Ww3dnOjLkofNNx-27" value="&lt;b&gt;s2&lt;/b&gt;" style="rounded=1;whiteSpace=wrap;html=1;fillColor=#fff2cc;strokeColor=#d6b656;verticalAlign=top;" parent="1" vertex="1">
          <mxGeometry x="758.5" y="850" width="97" height="77.5" as="geometry" />
        </mxCell>
        <mxCell id="y0YYO1Ww3dnOjLkofNNx-30" value="&lt;font style=&quot;font-size: 9px;&quot;&gt;internal-service&lt;/font&gt;" style="rounded=0;whiteSpace=wrap;html=1;verticalAlign=middle;fillColor=#dae8fc;strokeColor=#6c8ebf;fontSize=9;" parent="1" vertex="1">
          <mxGeometry x="638.5" y="776" width="80" height="20" as="geometry" />
        </mxCell>
        <mxCell id="y0YYO1Ww3dnOjLkofNNx-32" value="&lt;font style=&quot;font-size: 9px;&quot;&gt;internal-service&lt;/font&gt;" style="rounded=0;whiteSpace=wrap;html=1;verticalAlign=middle;fillColor=#dae8fc;strokeColor=#6c8ebf;fontSize=9;" parent="1" vertex="1">
          <mxGeometry x="638.5" y="876.25" width="80" height="20" as="geometry" />
        </mxCell>
        <mxCell id="y0YYO1Ww3dnOjLkofNNx-33" value="&lt;font style=&quot;font-size: 9px;&quot;&gt;external-services&lt;/font&gt;" style="rounded=0;whiteSpace=wrap;html=1;verticalAlign=middle;fillColor=#f8cecc;strokeColor=#b85450;fontSize=9;" parent="1" vertex="1">
          <mxGeometry x="638.5" y="901.75" width="80" height="20" as="geometry" />
        </mxCell>
        <mxCell id="8nK1MFJa5ZXPbIgQbmmB-26" style="edgeStyle=orthogonalEdgeStyle;rounded=0;orthogonalLoop=1;jettySize=auto;html=1;entryX=1;entryY=0.5;entryDx=0;entryDy=0;exitX=1;exitY=0.5;exitDx=0;exitDy=0;" parent="1" source="f1Og8HxGCwJFs7XPGFhU-21" target="y0YYO1Ww3dnOjLkofNNx-17" edge="1">
          <mxGeometry relative="1" as="geometry">
            <Array as="points">
              <mxPoint x="880" y="913" />
              <mxPoint x="880" y="789" />
            </Array>
          </mxGeometry>
        </mxCell>
        <mxCell id="y0YYO1Ww3dnOjLkofNNx-35" value="&lt;font style=&quot;font-size: 9px;&quot;&gt;internal-service&lt;/font&gt;" style="rounded=0;whiteSpace=wrap;html=1;verticalAlign=middle;fillColor=#dae8fc;strokeColor=#6c8ebf;fontSize=9;" parent="1" vertex="1">
          <mxGeometry x="767" y="878.75" width="80" height="20" as="geometry" />
        </mxCell>
        <mxCell id="unySDTIx3aqfD-lI6iuk-47" value="" style="group" parent="1" vertex="1" connectable="0">
          <mxGeometry x="290" y="1150" width="1140" height="390" as="geometry" />
        </mxCell>
        <mxCell id="unySDTIx3aqfD-lI6iuk-48" value="Microservice Application" style="rounded=0;whiteSpace=wrap;html=1;verticalAlign=top;fontSize=22;fontStyle=0;dashed=1;" parent="unySDTIx3aqfD-lI6iuk-47" vertex="1">
          <mxGeometry width="1140" height="390" as="geometry" />
        </mxCell>
        <mxCell id="unySDTIx3aqfD-lI6iuk-49" value="" style="edgeStyle=orthogonalEdgeStyle;rounded=0;orthogonalLoop=1;jettySize=auto;html=1;fontSize=14;startArrow=classic;startFill=1;endArrow=none;endFill=0;" parent="unySDTIx3aqfD-lI6iuk-47" source="unySDTIx3aqfD-lI6iuk-50" edge="1">
          <mxGeometry relative="1" as="geometry">
            <mxPoint x="10" y="216" as="targetPoint" />
          </mxGeometry>
        </mxCell>
        <mxCell id="unySDTIx3aqfD-lI6iuk-50" value="&lt;font style=&quot;font-size: 16px&quot;&gt;API&lt;br&gt;Gateway&lt;/font&gt;" style="rounded=0;whiteSpace=wrap;html=1;fontSize=14;" parent="unySDTIx3aqfD-lI6iuk-47" vertex="1">
          <mxGeometry x="67" y="164.8900000000001" width="119" height="101.23" as="geometry" />
        </mxCell>
        <mxCell id="unySDTIx3aqfD-lI6iuk-51" value="" style="group;fontSize=14;" parent="unySDTIx3aqfD-lI6iuk-47" vertex="1" connectable="0">
          <mxGeometry x="248" y="145" width="140" height="140" as="geometry" />
        </mxCell>
        <mxCell id="unySDTIx3aqfD-lI6iuk-52" value="&lt;b&gt;&lt;font style=&quot;font-size: 16px&quot;&gt;s0&lt;/font&gt;&lt;/b&gt;" style="rounded=1;whiteSpace=wrap;html=1;fillColor=#fff2cc;strokeColor=#d6b656;verticalAlign=top;" parent="unySDTIx3aqfD-lI6iuk-51" vertex="1">
          <mxGeometry width="140" height="140" as="geometry" />
        </mxCell>
        <mxCell id="unySDTIx3aqfD-lI6iuk-53" value="&lt;font style=&quot;font-size: 13px;&quot;&gt;&lt;b style=&quot;font-size: 13px;&quot;&gt;internal-service:&lt;br style=&quot;font-size: 13px;&quot;&gt;&lt;/b&gt;cpu-stress-function&lt;br style=&quot;font-size: 13px;&quot;&gt;&lt;/font&gt;" style="rounded=1;whiteSpace=wrap;html=1;verticalAlign=middle;fillColor=#dae8fc;strokeColor=#6c8ebf;fontSize=13;" parent="unySDTIx3aqfD-lI6iuk-51" vertex="1">
          <mxGeometry x="12" y="79.53" width="118" height="42.82" as="geometry" />
        </mxCell>
        <mxCell id="unySDTIx3aqfD-lI6iuk-54" value="&lt;font style=&quot;font-size: 13px&quot;&gt;&lt;b&gt;external-services:&lt;/b&gt;&lt;br&gt;{s1, s2}&lt;br style=&quot;font-size: 12px&quot;&gt;&lt;/font&gt;" style="rounded=1;whiteSpace=wrap;html=1;verticalAlign=middle;fillColor=#f8cecc;strokeColor=#b85450;fontSize=12;" parent="unySDTIx3aqfD-lI6iuk-51" vertex="1">
          <mxGeometry x="12" y="31.05" width="118" height="42.82" as="geometry" />
        </mxCell>
        <mxCell id="unySDTIx3aqfD-lI6iuk-55" style="edgeStyle=orthogonalEdgeStyle;rounded=0;orthogonalLoop=1;jettySize=auto;html=1;entryX=0;entryY=0.5;entryDx=0;entryDy=0;" parent="unySDTIx3aqfD-lI6iuk-47" source="unySDTIx3aqfD-lI6iuk-50" target="unySDTIx3aqfD-lI6iuk-52" edge="1">
          <mxGeometry relative="1" as="geometry" />
        </mxCell>
        <mxCell id="unySDTIx3aqfD-lI6iuk-56" value="" style="group;fontSize=14;" parent="unySDTIx3aqfD-lI6iuk-47" vertex="1" connectable="0">
          <mxGeometry x="508" y="55" width="140" height="140" as="geometry" />
        </mxCell>
        <mxCell id="unySDTIx3aqfD-lI6iuk-57" value="&lt;b&gt;&lt;font style=&quot;font-size: 16px&quot;&gt;s1&lt;/font&gt;&lt;/b&gt;" style="rounded=1;whiteSpace=wrap;html=1;fillColor=#fff2cc;strokeColor=#d6b656;verticalAlign=top;" parent="unySDTIx3aqfD-lI6iuk-56" vertex="1">
          <mxGeometry width="140" height="140" as="geometry" />
        </mxCell>
        <mxCell id="unySDTIx3aqfD-lI6iuk-58" value="&lt;font style=&quot;font-size: 13px;&quot;&gt;&lt;b style=&quot;font-size: 13px;&quot;&gt;internal-service:&lt;br style=&quot;font-size: 13px;&quot;&gt;&lt;/b&gt;custom-function1&lt;br style=&quot;font-size: 13px;&quot;&gt;&lt;/font&gt;" style="rounded=1;whiteSpace=wrap;html=1;verticalAlign=middle;fillColor=#dae8fc;strokeColor=#6c8ebf;fontSize=13;" parent="unySDTIx3aqfD-lI6iuk-56" vertex="1">
          <mxGeometry x="12" y="79.53" width="118" height="42.82" as="geometry" />
        </mxCell>
        <mxCell id="unySDTIx3aqfD-lI6iuk-59" value="&lt;font style=&quot;font-size: 13px&quot;&gt;&lt;b&gt;external-services:&lt;/b&gt;&lt;br&gt;{s3}&lt;br style=&quot;font-size: 12px&quot;&gt;&lt;/font&gt;" style="rounded=1;whiteSpace=wrap;html=1;verticalAlign=middle;fillColor=#f8cecc;strokeColor=#b85450;fontSize=12;" parent="unySDTIx3aqfD-lI6iuk-56" vertex="1">
          <mxGeometry x="12" y="31.05" width="118" height="42.82" as="geometry" />
        </mxCell>
        <mxCell id="unySDTIx3aqfD-lI6iuk-60" value="" style="group;fontSize=14;" parent="unySDTIx3aqfD-lI6iuk-47" vertex="1" connectable="0">
          <mxGeometry x="508" y="235" width="140" height="140" as="geometry" />
        </mxCell>
        <mxCell id="unySDTIx3aqfD-lI6iuk-61" value="&lt;b&gt;&lt;font style=&quot;font-size: 16px&quot;&gt;s2&lt;/font&gt;&lt;/b&gt;" style="rounded=1;whiteSpace=wrap;html=1;fillColor=#fff2cc;strokeColor=#d6b656;verticalAlign=top;" parent="unySDTIx3aqfD-lI6iuk-60" vertex="1">
          <mxGeometry width="140" height="140" as="geometry" />
        </mxCell>
        <mxCell id="unySDTIx3aqfD-lI6iuk-62" value="&lt;font style=&quot;font-size: 13px;&quot;&gt;&lt;b style=&quot;font-size: 13px;&quot;&gt;internal-service:&lt;br style=&quot;font-size: 13px;&quot;&gt;&lt;/b&gt;custom-function2&lt;br style=&quot;font-size: 13px;&quot;&gt;&lt;/font&gt;" style="rounded=1;whiteSpace=wrap;html=1;verticalAlign=middle;fillColor=#dae8fc;strokeColor=#6c8ebf;fontSize=13;" parent="unySDTIx3aqfD-lI6iuk-60" vertex="1">
          <mxGeometry x="12" y="79.53" width="118" height="42.82" as="geometry" />
        </mxCell>
        <mxCell id="unySDTIx3aqfD-lI6iuk-63" value="&lt;font style=&quot;font-size: 13px&quot;&gt;&lt;b&gt;external-services:&lt;/b&gt;&lt;br&gt;{s4}&lt;br style=&quot;font-size: 12px&quot;&gt;&lt;/font&gt;" style="rounded=1;whiteSpace=wrap;html=1;verticalAlign=middle;fillColor=#f8cecc;strokeColor=#b85450;fontSize=12;" parent="unySDTIx3aqfD-lI6iuk-60" vertex="1">
          <mxGeometry x="12" y="31.05" width="118" height="42.82" as="geometry" />
        </mxCell>
        <mxCell id="unySDTIx3aqfD-lI6iuk-64" style="edgeStyle=orthogonalEdgeStyle;rounded=0;orthogonalLoop=1;jettySize=auto;html=1;entryX=0;entryY=0.5;entryDx=0;entryDy=0;" parent="unySDTIx3aqfD-lI6iuk-47" source="unySDTIx3aqfD-lI6iuk-52" target="unySDTIx3aqfD-lI6iuk-57" edge="1">
          <mxGeometry x="218" as="geometry">
            <Array as="points">
              <mxPoint x="428" y="215" />
              <mxPoint x="428" y="125" />
            </Array>
          </mxGeometry>
        </mxCell>
        <mxCell id="unySDTIx3aqfD-lI6iuk-65" style="edgeStyle=orthogonalEdgeStyle;rounded=0;orthogonalLoop=1;jettySize=auto;html=1;entryX=0;entryY=0.5;entryDx=0;entryDy=0;" parent="unySDTIx3aqfD-lI6iuk-47" source="unySDTIx3aqfD-lI6iuk-52" target="unySDTIx3aqfD-lI6iuk-61" edge="1">
          <mxGeometry x="218" as="geometry">
            <Array as="points">
              <mxPoint x="428" y="215" />
              <mxPoint x="428" y="305" />
            </Array>
          </mxGeometry>
        </mxCell>
        <mxCell id="unySDTIx3aqfD-lI6iuk-66" value="" style="group;fontSize=14;" parent="unySDTIx3aqfD-lI6iuk-47" vertex="1" connectable="0">
          <mxGeometry x="748" y="55" width="140" height="140" as="geometry" />
        </mxCell>
        <mxCell id="unySDTIx3aqfD-lI6iuk-67" value="&lt;b&gt;&lt;font style=&quot;font-size: 16px&quot;&gt;s3&lt;/font&gt;&lt;/b&gt;" style="rounded=1;whiteSpace=wrap;html=1;fillColor=#fff2cc;strokeColor=#d6b656;verticalAlign=top;" parent="unySDTIx3aqfD-lI6iuk-66" vertex="1">
          <mxGeometry width="140" height="140" as="geometry" />
        </mxCell>
        <mxCell id="unySDTIx3aqfD-lI6iuk-68" value="&lt;font style=&quot;font-size: 13px&quot;&gt;&lt;b&gt;internal-service:&lt;br&gt;&lt;/b&gt;custom-function2&lt;br style=&quot;font-size: 12px&quot;&gt;&lt;/font&gt;" style="rounded=1;whiteSpace=wrap;html=1;verticalAlign=middle;fillColor=#dae8fc;strokeColor=#6c8ebf;fontSize=12;" parent="unySDTIx3aqfD-lI6iuk-66" vertex="1">
          <mxGeometry x="12" y="79.53" width="118" height="42.82" as="geometry" />
        </mxCell>
        <mxCell id="unySDTIx3aqfD-lI6iuk-69" value="&lt;font style=&quot;font-size: 13px&quot;&gt;&lt;b&gt;external-services:&lt;/b&gt;&lt;br&gt;{}&lt;br style=&quot;font-size: 12px&quot;&gt;&lt;/font&gt;" style="rounded=1;whiteSpace=wrap;html=1;verticalAlign=middle;fillColor=#f8cecc;strokeColor=#b85450;fontSize=12;" parent="unySDTIx3aqfD-lI6iuk-66" vertex="1">
          <mxGeometry x="12" y="31.05" width="118" height="42.82" as="geometry" />
        </mxCell>
        <mxCell id="unySDTIx3aqfD-lI6iuk-70" value="" style="group;fontSize=16;" parent="unySDTIx3aqfD-lI6iuk-47" vertex="1" connectable="0">
          <mxGeometry x="748" y="235" width="140" height="140" as="geometry" />
        </mxCell>
        <mxCell id="unySDTIx3aqfD-lI6iuk-71" value="&lt;b&gt;&lt;font style=&quot;font-size: 16px&quot;&gt;s4&lt;/font&gt;&lt;/b&gt;" style="rounded=1;whiteSpace=wrap;html=1;fillColor=#fff2cc;strokeColor=#d6b656;verticalAlign=top;" parent="unySDTIx3aqfD-lI6iuk-70" vertex="1">
          <mxGeometry width="140" height="140" as="geometry" />
        </mxCell>
        <mxCell id="unySDTIx3aqfD-lI6iuk-72" value="&lt;font style=&quot;font-size: 13px;&quot;&gt;&lt;b style=&quot;font-size: 13px;&quot;&gt;internal-service:&lt;br style=&quot;font-size: 13px;&quot;&gt;&lt;/b&gt;cpu-stress-function&lt;br style=&quot;font-size: 13px;&quot;&gt;&lt;/font&gt;" style="rounded=1;whiteSpace=wrap;html=1;verticalAlign=middle;fillColor=#dae8fc;strokeColor=#6c8ebf;fontSize=13;" parent="unySDTIx3aqfD-lI6iuk-70" vertex="1">
          <mxGeometry x="12" y="79.53" width="118" height="42.82" as="geometry" />
        </mxCell>
        <mxCell id="unySDTIx3aqfD-lI6iuk-73" value="&lt;font style=&quot;font-size: 13px;&quot;&gt;&lt;b style=&quot;font-size: 13px;&quot;&gt;external-services:&lt;/b&gt;&lt;br style=&quot;font-size: 13px;&quot;&gt;{sdb1}&lt;br style=&quot;font-size: 13px;&quot;&gt;&lt;/font&gt;" style="rounded=1;whiteSpace=wrap;html=1;verticalAlign=middle;fillColor=#f8cecc;strokeColor=#b85450;fontSize=13;" parent="unySDTIx3aqfD-lI6iuk-70" vertex="1">
          <mxGeometry x="12" y="31.05" width="118" height="42.82" as="geometry" />
        </mxCell>
        <mxCell id="unySDTIx3aqfD-lI6iuk-74" style="edgeStyle=orthogonalEdgeStyle;rounded=0;orthogonalLoop=1;jettySize=auto;html=1;entryX=0;entryY=0.5;entryDx=0;entryDy=0;" parent="unySDTIx3aqfD-lI6iuk-47" source="unySDTIx3aqfD-lI6iuk-57" target="unySDTIx3aqfD-lI6iuk-67" edge="1">
          <mxGeometry x="218" as="geometry" />
        </mxCell>
        <mxCell id="unySDTIx3aqfD-lI6iuk-75" style="edgeStyle=orthogonalEdgeStyle;rounded=0;orthogonalLoop=1;jettySize=auto;html=1;entryX=0;entryY=0.5;entryDx=0;entryDy=0;" parent="unySDTIx3aqfD-lI6iuk-47" source="unySDTIx3aqfD-lI6iuk-61" target="unySDTIx3aqfD-lI6iuk-71" edge="1">
          <mxGeometry x="218" as="geometry" />
        </mxCell>
        <mxCell id="unySDTIx3aqfD-lI6iuk-76" value="" style="group;fontSize=14;" parent="unySDTIx3aqfD-lI6iuk-47" vertex="1" connectable="0">
          <mxGeometry x="988" y="235" width="140" height="140" as="geometry" />
        </mxCell>
        <mxCell id="unySDTIx3aqfD-lI6iuk-77" value="&lt;b style=&quot;font-size: 16px;&quot;&gt;&lt;font style=&quot;font-size: 16px;&quot;&gt;sdb1&lt;/font&gt;&lt;/b&gt;" style="rounded=1;whiteSpace=wrap;html=1;fillColor=#fff2cc;strokeColor=#d6b656;verticalAlign=top;fontSize=16;" parent="unySDTIx3aqfD-lI6iuk-76" vertex="1">
          <mxGeometry width="140" height="140" as="geometry" />
        </mxCell>
        <mxCell id="unySDTIx3aqfD-lI6iuk-78" value="&lt;font style=&quot;font-size: 13px;&quot;&gt;&lt;b style=&quot;font-size: 13px;&quot;&gt;internal-service:&lt;br style=&quot;font-size: 13px;&quot;&gt;&lt;/b&gt;db-stress-function&lt;br style=&quot;font-size: 13px;&quot;&gt;&lt;/font&gt;" style="rounded=1;whiteSpace=wrap;html=1;verticalAlign=middle;fillColor=#dae8fc;strokeColor=#6c8ebf;fontSize=13;" parent="unySDTIx3aqfD-lI6iuk-76" vertex="1">
          <mxGeometry x="12" y="79.53" width="118" height="42.82" as="geometry" />
        </mxCell>
        <mxCell id="unySDTIx3aqfD-lI6iuk-79" value="&lt;font style=&quot;font-size: 13px;&quot;&gt;&lt;b style=&quot;font-size: 13px;&quot;&gt;external-services:&lt;/b&gt;&lt;br style=&quot;font-size: 13px;&quot;&gt;{}&lt;br style=&quot;font-size: 13px;&quot;&gt;&lt;/font&gt;" style="rounded=1;whiteSpace=wrap;html=1;verticalAlign=middle;fillColor=#f8cecc;strokeColor=#b85450;fontSize=13;" parent="unySDTIx3aqfD-lI6iuk-76" vertex="1">
          <mxGeometry x="12" y="31.05" width="118" height="42.82" as="geometry" />
        </mxCell>
        <mxCell id="unySDTIx3aqfD-lI6iuk-80" style="edgeStyle=orthogonalEdgeStyle;rounded=0;orthogonalLoop=1;jettySize=auto;html=1;entryX=0;entryY=0.5;entryDx=0;entryDy=0;exitX=1;exitY=0.5;exitDx=0;exitDy=0;" parent="unySDTIx3aqfD-lI6iuk-47" source="unySDTIx3aqfD-lI6iuk-71" target="unySDTIx3aqfD-lI6iuk-77" edge="1">
          <mxGeometry x="218" as="geometry">
            <mxPoint x="888" y="305" as="sourcePoint" />
          </mxGeometry>
        </mxCell>
        <mxCell id="unySDTIx3aqfD-lI6iuk-81" value="REST" style="edgeLabel;html=1;align=center;verticalAlign=middle;resizable=0;points=[];labelBackgroundColor=none;" parent="unySDTIx3aqfD-lI6iuk-47" vertex="1" connectable="0">
          <mxGeometry x="471" y="115" as="geometry" />
        </mxCell>
        <mxCell id="unySDTIx3aqfD-lI6iuk-82" value="or gRPC" style="edgeLabel;html=1;align=center;verticalAlign=middle;resizable=0;points=[];labelBackgroundColor=none;" parent="unySDTIx3aqfD-lI6iuk-47" vertex="1" connectable="0">
          <mxGeometry x="468" y="135" as="geometry" />
        </mxCell>
        <mxCell id="unySDTIx3aqfD-lI6iuk-83" value="REST" style="edgeLabel;html=1;align=center;verticalAlign=middle;resizable=0;points=[];labelBackgroundColor=none;" parent="unySDTIx3aqfD-lI6iuk-47" vertex="1" connectable="0">
          <mxGeometry x="474" y="295" as="geometry" />
        </mxCell>
        <mxCell id="unySDTIx3aqfD-lI6iuk-84" value="or gRPC" style="edgeLabel;html=1;align=center;verticalAlign=middle;resizable=0;points=[];labelBackgroundColor=none;" parent="unySDTIx3aqfD-lI6iuk-47" vertex="1" connectable="0">
          <mxGeometry x="471" y="315" as="geometry" />
        </mxCell>
        <mxCell id="unySDTIx3aqfD-lI6iuk-85" value="REST" style="edgeLabel;html=1;align=center;verticalAlign=middle;resizable=0;points=[];labelBackgroundColor=none;" parent="unySDTIx3aqfD-lI6iuk-47" vertex="1" connectable="0">
          <mxGeometry x="697.1300000000001" y="115" as="geometry" />
        </mxCell>
        <mxCell id="unySDTIx3aqfD-lI6iuk-86" value="or gRPC" style="edgeLabel;html=1;align=center;verticalAlign=middle;resizable=0;points=[];labelBackgroundColor=none;" parent="unySDTIx3aqfD-lI6iuk-47" vertex="1" connectable="0">
          <mxGeometry x="697.1300000000001" y="135" as="geometry" />
        </mxCell>
        <mxCell id="unySDTIx3aqfD-lI6iuk-87" value="REST" style="edgeLabel;html=1;align=center;verticalAlign=middle;resizable=0;points=[];labelBackgroundColor=none;" parent="unySDTIx3aqfD-lI6iuk-47" vertex="1" connectable="0">
          <mxGeometry x="700.1300000000001" y="295" as="geometry" />
        </mxCell>
        <mxCell id="unySDTIx3aqfD-lI6iuk-88" value="or gRPC" style="edgeLabel;html=1;align=center;verticalAlign=middle;resizable=0;points=[];labelBackgroundColor=none;" parent="unySDTIx3aqfD-lI6iuk-47" vertex="1" connectable="0">
          <mxGeometry x="697.1300000000001" y="315" as="geometry" />
        </mxCell>
        <mxCell id="unySDTIx3aqfD-lI6iuk-89" value="REST" style="edgeLabel;html=1;align=center;verticalAlign=middle;resizable=0;points=[];labelBackgroundColor=none;" parent="unySDTIx3aqfD-lI6iuk-47" vertex="1" connectable="0">
          <mxGeometry x="941" y="295" as="geometry" />
        </mxCell>
        <mxCell id="unySDTIx3aqfD-lI6iuk-90" value="or gRPC" style="edgeLabel;html=1;align=center;verticalAlign=middle;resizable=0;points=[];labelBackgroundColor=none;" parent="unySDTIx3aqfD-lI6iuk-47" vertex="1" connectable="0">
          <mxGeometry x="938" y="315" as="geometry" />
        </mxCell>
        <mxCell id="unySDTIx3aqfD-lI6iuk-91" value="REST" style="edgeLabel;html=1;align=center;verticalAlign=middle;resizable=0;points=[];labelBackgroundColor=none;" parent="unySDTIx3aqfD-lI6iuk-47" vertex="1" connectable="0">
          <mxGeometry x="490" y="125" as="geometry">
            <mxPoint x="-274" y="84" as="offset" />
          </mxGeometry>
        </mxCell>
        <mxCell id="unySDTIx3aqfD-lI6iuk-92" value="REST" style="edgeLabel;html=1;align=center;verticalAlign=middle;resizable=0;points=[];labelBackgroundColor=none;" parent="unySDTIx3aqfD-lI6iuk-47" vertex="1" connectable="0">
          <mxGeometry x="40" y="208" as="geometry" />
        </mxCell>
        <mxCell id="f1Og8HxGCwJFs7XPGFhU-20" value="&lt;font style=&quot;font-size: 9px&quot;&gt;external-services&lt;br&gt;(void)&lt;br&gt;&lt;/font&gt;" style="rounded=0;whiteSpace=wrap;html=1;verticalAlign=middle;fillColor=#f8cecc;strokeColor=#b85450;fontSize=9;" parent="1" vertex="1">
          <mxGeometry x="638.5" y="800" width="80" height="22.047199999999997" as="geometry" />
        </mxCell>
        <mxCell id="f1Og8HxGCwJFs7XPGFhU-21" value="&lt;font style=&quot;font-size: 9px&quot;&gt;external-services&lt;br&gt;(void)&lt;br&gt;&lt;/font&gt;" style="rounded=0;whiteSpace=wrap;html=1;verticalAlign=middle;fillColor=#f8cecc;strokeColor=#b85450;fontSize=9;" parent="1" vertex="1">
          <mxGeometry x="767" y="901.75" width="80" height="22.047199999999997" as="geometry" />
        </mxCell>
        <mxCell id="f1Og8HxGCwJFs7XPGFhU-23" style="edgeStyle=orthogonalEdgeStyle;rounded=0;orthogonalLoop=1;jettySize=auto;html=1;" parent="1" source="f1Og8HxGCwJFs7XPGFhU-22" target="y0YYO1Ww3dnOjLkofNNx-9" edge="1">
          <mxGeometry relative="1" as="geometry" />
        </mxCell>
        <mxCell id="f1Og8HxGCwJFs7XPGFhU-22" value="User" style="shape=umlActor;verticalLabelPosition=bottom;verticalAlign=top;html=1;outlineConnect=0;fillColor=#FFCCCC;" parent="1" vertex="1">
          <mxGeometry x="300" y="819" width="20" height="41" as="geometry" />
        </mxCell>
        <mxCell id="f1Og8HxGCwJFs7XPGFhU-24" value="&lt;span style=&quot;font-size: 14px ; font-style: normal ; font-weight: 400 ; letter-spacing: normal ; text-align: center ; text-indent: 0px ; text-transform: none ; word-spacing: 0px ; display: inline ; float: none ; background-color: rgb(255 , 255 , 255)&quot;&gt;&lt;span style=&quot;font-family: &amp;#34;droid sans mono&amp;#34; , monospace , monospace , &amp;#34;droid sans fallback&amp;#34;&quot;&gt;µ&lt;/span&gt;Bench&lt;span style=&quot;font-family: &amp;#34;droid sans mono&amp;#34; , monospace , monospace , &amp;#34;droid sans fallback&amp;#34; ; color: rgb(212 , 212 , 212)&quot;&gt; &lt;/span&gt;&lt;font face=&quot;helvetica&quot;&gt;Microservice Application&lt;/font&gt;&lt;/span&gt;" style="text;whiteSpace=wrap;html=1;" parent="1" vertex="1">
          <mxGeometry x="450" y="940" width="230" height="30" as="geometry" />
        </mxCell>
        <mxCell id="8nK1MFJa5ZXPbIgQbmmB-1" value="" style="group" parent="1" vertex="1" connectable="0">
          <mxGeometry x="627" y="848" width="20" height="20" as="geometry" />
        </mxCell>
        <mxCell id="8nK1MFJa5ZXPbIgQbmmB-2" value="" style="ellipse;whiteSpace=wrap;html=1;aspect=fixed;rounded=1;shadow=0;sketch=0;fontSize=23;strokeWidth=1;align=center;verticalAlign=middle;strokeColor=none;" parent="8nK1MFJa5ZXPbIgQbmmB-1" vertex="1">
          <mxGeometry x="1.25" y="1.25" width="7.5" height="7.5" as="geometry" />
        </mxCell>
        <mxCell id="8nK1MFJa5ZXPbIgQbmmB-3" value="" style="shape=image;html=1;verticalAlign=top;verticalLabelPosition=bottom;labelBackgroundColor=#ffffff;imageAspect=0;aspect=fixed;image=https://cdn3.iconfinder.com/data/icons/virus-transmission-3/64/Microorganism-cell-lab-virus-bacteria-scientist-petri_dish-128.png;rounded=1;shadow=0;fontSize=23;strokeWidth=1;sketch=0;" parent="8nK1MFJa5ZXPbIgQbmmB-1" vertex="1">
          <mxGeometry width="20" height="20" as="geometry" />
        </mxCell>
        <mxCell id="8nK1MFJa5ZXPbIgQbmmB-14" value="" style="group" parent="1" vertex="1" connectable="0">
          <mxGeometry x="627" y="747" width="20" height="20" as="geometry" />
        </mxCell>
        <mxCell id="8nK1MFJa5ZXPbIgQbmmB-15" value="" style="ellipse;whiteSpace=wrap;html=1;aspect=fixed;rounded=1;shadow=0;sketch=0;fontSize=23;strokeWidth=1;align=center;verticalAlign=middle;strokeColor=none;" parent="8nK1MFJa5ZXPbIgQbmmB-14" vertex="1">
          <mxGeometry x="1.25" y="1.25" width="7.5" height="7.5" as="geometry" />
        </mxCell>
        <mxCell id="8nK1MFJa5ZXPbIgQbmmB-16" value="" style="shape=image;html=1;verticalAlign=top;verticalLabelPosition=bottom;labelBackgroundColor=#ffffff;imageAspect=0;aspect=fixed;image=https://cdn3.iconfinder.com/data/icons/virus-transmission-3/64/Microorganism-cell-lab-virus-bacteria-scientist-petri_dish-128.png;rounded=1;shadow=0;fontSize=23;strokeWidth=1;sketch=0;" parent="8nK1MFJa5ZXPbIgQbmmB-14" vertex="1">
          <mxGeometry width="20" height="20" as="geometry" />
        </mxCell>
        <mxCell id="y0YYO1Ww3dnOjLkofNNx-12" value="" style="group" parent="1" vertex="1" connectable="0">
          <mxGeometry x="478.5" y="800" width="97" height="79.01960784313725" as="geometry" />
        </mxCell>
        <mxCell id="y0YYO1Ww3dnOjLkofNNx-13" value="&lt;b&gt;s0&lt;/b&gt;" style="rounded=1;whiteSpace=wrap;html=1;fillColor=#fff2cc;strokeColor=#d6b656;verticalAlign=top;" parent="y0YYO1Ww3dnOjLkofNNx-12" vertex="1">
          <mxGeometry width="97" height="79.01960784313725" as="geometry" />
        </mxCell>
        <mxCell id="y0YYO1Ww3dnOjLkofNNx-14" value="&lt;span style=&quot;font-size: 10px&quot;&gt;internal-service&lt;/span&gt;" style="rounded=0;whiteSpace=wrap;html=1;verticalAlign=middle;fillColor=#dae8fc;strokeColor=#6c8ebf;" parent="y0YYO1Ww3dnOjLkofNNx-12" vertex="1">
          <mxGeometry x="8.5" y="25.49019607843137" width="80" height="20.392156862745097" as="geometry" />
        </mxCell>
        <mxCell id="f1Og8HxGCwJFs7XPGFhU-16" value="&lt;font style=&quot;font-size: 9px;&quot;&gt;external-services&lt;/font&gt;" style="rounded=0;whiteSpace=wrap;html=1;verticalAlign=middle;fillColor=#f8cecc;strokeColor=#b85450;fontSize=9;" parent="y0YYO1Ww3dnOjLkofNNx-12" vertex="1">
          <mxGeometry x="8.5" y="49.45098039215686" width="80" height="20.392156862745097" as="geometry" />
        </mxCell>
        <mxCell id="8nK1MFJa5ZXPbIgQbmmB-17" value="" style="group" parent="y0YYO1Ww3dnOjLkofNNx-12" vertex="1" connectable="0">
          <mxGeometry x="-3" y="-3" width="20" height="20" as="geometry" />
        </mxCell>
        <mxCell id="8nK1MFJa5ZXPbIgQbmmB-18" value="" style="ellipse;whiteSpace=wrap;html=1;aspect=fixed;rounded=1;shadow=0;sketch=0;fontSize=23;strokeWidth=1;align=center;verticalAlign=middle;strokeColor=none;" parent="8nK1MFJa5ZXPbIgQbmmB-17" vertex="1">
          <mxGeometry x="1.25" y="1.25" width="7.5" height="7.5" as="geometry" />
        </mxCell>
        <mxCell id="8nK1MFJa5ZXPbIgQbmmB-19" value="" style="shape=image;html=1;verticalAlign=top;verticalLabelPosition=bottom;labelBackgroundColor=#ffffff;imageAspect=0;aspect=fixed;image=https://cdn3.iconfinder.com/data/icons/virus-transmission-3/64/Microorganism-cell-lab-virus-bacteria-scientist-petri_dish-128.png;rounded=1;shadow=0;fontSize=23;strokeWidth=1;sketch=0;" parent="8nK1MFJa5ZXPbIgQbmmB-17" vertex="1">
          <mxGeometry width="20" height="20" as="geometry" />
        </mxCell>
        <mxCell id="8nK1MFJa5ZXPbIgQbmmB-20" value="&lt;span style=&quot;color: rgb(0 , 0 , 0) ; font-family: &amp;#34;helvetica&amp;#34; ; font-size: 10px ; font-style: normal ; font-weight: 400 ; letter-spacing: normal ; text-align: center ; text-indent: 0px ; text-transform: none ; word-spacing: 0px ; background-color: rgb(248 , 249 , 250) ; display: inline ; float: none&quot;&gt;service-cell&lt;/span&gt;" style="text;whiteSpace=wrap;html=1;" parent="1" vertex="1">
          <mxGeometry x="495" y="777" width="90" height="30" as="geometry" />
        </mxCell>
        <mxCell id="8nK1MFJa5ZXPbIgQbmmB-23" value="&lt;span style=&quot;color: rgb(0 , 0 , 0) ; font-family: &amp;#34;helvetica&amp;#34; ; font-size: 10px ; font-style: normal ; font-weight: 400 ; letter-spacing: normal ; text-align: center ; text-indent: 0px ; text-transform: none ; word-spacing: 0px ; background-color: rgb(248 , 249 , 250) ; display: inline ; float: none&quot;&gt;service-cell&lt;/span&gt;" style="text;whiteSpace=wrap;html=1;" parent="1" vertex="1">
          <mxGeometry x="649" y="727" width="90" height="30" as="geometry" />
        </mxCell>
        <mxCell id="8nK1MFJa5ZXPbIgQbmmB-24" value="&lt;span style=&quot;color: rgb(0 , 0 , 0) ; font-family: &amp;#34;helvetica&amp;#34; ; font-size: 10px ; font-style: normal ; font-weight: 400 ; letter-spacing: normal ; text-align: center ; text-indent: 0px ; text-transform: none ; word-spacing: 0px ; background-color: rgb(248 , 249 , 250) ; display: inline ; float: none&quot;&gt;service-cell&lt;/span&gt;" style="text;whiteSpace=wrap;html=1;" parent="1" vertex="1">
          <mxGeometry x="780" y="824.51" width="90" height="30" as="geometry" />
        </mxCell>
        <mxCell id="8nK1MFJa5ZXPbIgQbmmB-25" value="&lt;span style=&quot;color: rgb(0 , 0 , 0) ; font-family: &amp;#34;helvetica&amp;#34; ; font-size: 10px ; font-style: normal ; font-weight: 400 ; letter-spacing: normal ; text-align: center ; text-indent: 0px ; text-transform: none ; word-spacing: 0px ; background-color: rgb(248 , 249 , 250) ; display: inline ; float: none&quot;&gt;service-cell&lt;/span&gt;" style="text;whiteSpace=wrap;html=1;" parent="1" vertex="1">
          <mxGeometry x="655" y="826.51" width="90" height="30" as="geometry" />
        </mxCell>
        <mxCell id="y0YYO1Ww3dnOjLkofNNx-19" value="" style="edgeStyle=orthogonalEdgeStyle;rounded=0;orthogonalLoop=1;jettySize=auto;html=1;exitX=1;exitY=0.5;exitDx=0;exitDy=0;" parent="1" source="y0YYO1Ww3dnOjLkofNNx-33" target="y0YYO1Ww3dnOjLkofNNx-27" edge="1">
          <mxGeometry relative="1" as="geometry" />
        </mxCell>
        <mxCell id="y0YYO1Ww3dnOjLkofNNx-21" value="" style="edgeStyle=orthogonalEdgeStyle;rounded=0;orthogonalLoop=1;jettySize=auto;html=1;exitX=1;exitY=0.5;exitDx=0;exitDy=0;" parent="1" source="f1Og8HxGCwJFs7XPGFhU-16" target="y0YYO1Ww3dnOjLkofNNx-20" edge="1">
          <mxGeometry relative="1" as="geometry">
            <Array as="points">
              <mxPoint x="599" y="860" />
              <mxPoint x="599" y="889" />
            </Array>
          </mxGeometry>
        </mxCell>
        <mxCell id="8nK1MFJa5ZXPbIgQbmmB-27" value="" style="group" parent="1" vertex="1" connectable="0">
          <mxGeometry x="755" y="847" width="20" height="20" as="geometry" />
        </mxCell>
        <mxCell id="8nK1MFJa5ZXPbIgQbmmB-28" value="" style="ellipse;whiteSpace=wrap;html=1;aspect=fixed;rounded=1;shadow=0;sketch=0;fontSize=23;strokeWidth=1;align=center;verticalAlign=middle;strokeColor=none;" parent="8nK1MFJa5ZXPbIgQbmmB-27" vertex="1">
          <mxGeometry x="1.25" y="1.25" width="7.5" height="7.5" as="geometry" />
        </mxCell>
        <mxCell id="8nK1MFJa5ZXPbIgQbmmB-29" value="" style="shape=image;html=1;verticalAlign=top;verticalLabelPosition=bottom;labelBackgroundColor=#ffffff;imageAspect=0;aspect=fixed;image=https://cdn3.iconfinder.com/data/icons/virus-transmission-3/64/Microorganism-cell-lab-virus-bacteria-scientist-petri_dish-128.png;rounded=1;shadow=0;fontSize=23;strokeWidth=1;sketch=0;" parent="8nK1MFJa5ZXPbIgQbmmB-27" vertex="1">
          <mxGeometry width="20" height="20" as="geometry" />
        </mxCell>
      </root>
    </mxGraphModel>
  </diagram>
  <diagram id="0FwbTeQtXB_qg4i-KZUC" name="overview">
    <mxGraphModel dx="1434" dy="-315" grid="1" gridSize="10" guides="1" tooltips="1" connect="1" arrows="1" fold="1" page="1" pageScale="1" pageWidth="827" pageHeight="1169" math="0" shadow="0">
      <root>
        <mxCell id="E1xS29n1x0knLpVKt5oC-0" />
        <mxCell id="E1xS29n1x0knLpVKt5oC-1" parent="E1xS29n1x0knLpVKt5oC-0" />
        <mxCell id="E1xS29n1x0knLpVKt5oC-2" value="" style="group" parent="E1xS29n1x0knLpVKt5oC-1" vertex="1" connectable="0">
          <mxGeometry x="81" y="1612" width="665.09" height="284" as="geometry" />
        </mxCell>
        <mxCell id="E1xS29n1x0knLpVKt5oC-3" value="Service Graph Generator" style="rounded=1;whiteSpace=wrap;html=1;fillColor=#fff2cc;strokeColor=#d6b656;" parent="E1xS29n1x0knLpVKt5oC-2" vertex="1">
          <mxGeometry x="120" y="10" width="160" height="60" as="geometry" />
        </mxCell>
        <mxCell id="E1xS29n1x0knLpVKt5oC-4" value="" style="edgeStyle=orthogonalEdgeStyle;rounded=0;orthogonalLoop=1;jettySize=auto;html=1;" parent="E1xS29n1x0knLpVKt5oC-2" source="E1xS29n1x0knLpVKt5oC-5" target="E1xS29n1x0knLpVKt5oC-3" edge="1">
          <mxGeometry relative="1" as="geometry" />
        </mxCell>
        <mxCell id="E1xS29n1x0knLpVKt5oC-5" value="Service Graph Parameters" style="text;html=1;align=center;verticalAlign=middle;whiteSpace=wrap;rounded=0;strokeColor=#000000;" parent="E1xS29n1x0knLpVKt5oC-2" vertex="1">
          <mxGeometry y="22.5" width="90" height="35" as="geometry" />
        </mxCell>
        <mxCell id="E1xS29n1x0knLpVKt5oC-6" value="Workmodel Generator" style="rounded=1;whiteSpace=wrap;html=1;fillColor=#ffe6cc;strokeColor=#d79b00;" parent="E1xS29n1x0knLpVKt5oC-2" vertex="1">
          <mxGeometry x="120" y="120" width="160" height="60" as="geometry" />
        </mxCell>
        <mxCell id="E1xS29n1x0knLpVKt5oC-7" value="" style="edgeStyle=orthogonalEdgeStyle;rounded=0;orthogonalLoop=1;jettySize=auto;html=1;" parent="E1xS29n1x0knLpVKt5oC-2" source="E1xS29n1x0knLpVKt5oC-8" target="E1xS29n1x0knLpVKt5oC-6" edge="1">
          <mxGeometry relative="1" as="geometry" />
        </mxCell>
        <mxCell id="E1xS29n1x0knLpVKt5oC-8" value="Work Model Parameters" style="text;html=1;align=center;verticalAlign=middle;whiteSpace=wrap;rounded=0;strokeColor=#000000;" parent="E1xS29n1x0knLpVKt5oC-2" vertex="1">
          <mxGeometry y="132.5" width="90" height="35" as="geometry" />
        </mxCell>
        <mxCell id="E1xS29n1x0knLpVKt5oC-9" value="" style="edgeStyle=orthogonalEdgeStyle;rounded=0;orthogonalLoop=1;jettySize=auto;html=1;" parent="E1xS29n1x0knLpVKt5oC-2" source="E1xS29n1x0knLpVKt5oC-10" edge="1">
          <mxGeometry relative="1" as="geometry">
            <mxPoint x="590.5900000000005" y="94" as="targetPoint" />
          </mxGeometry>
        </mxCell>
        <mxCell id="E1xS29n1x0knLpVKt5oC-10" value="K8s YAML Builder" style="rounded=1;whiteSpace=wrap;html=1;fillColor=#dae8fc;strokeColor=#6c8ebf;" parent="E1xS29n1x0knLpVKt5oC-2" vertex="1">
          <mxGeometry x="430" y="64" width="120" height="60" as="geometry" />
        </mxCell>
        <mxCell id="E1xS29n1x0knLpVKt5oC-11" style="rounded=0;orthogonalLoop=1;jettySize=auto;html=1;entryX=0;entryY=0.25;entryDx=0;entryDy=0;edgeStyle=orthogonalEdgeStyle;" parent="E1xS29n1x0knLpVKt5oC-2" source="E1xS29n1x0knLpVKt5oC-3" target="E1xS29n1x0knLpVKt5oC-10" edge="1">
          <mxGeometry relative="1" as="geometry">
            <Array as="points">
              <mxPoint x="390" y="54" />
              <mxPoint x="390" y="79" />
            </Array>
          </mxGeometry>
        </mxCell>
        <mxCell id="E1xS29n1x0knLpVKt5oC-12" value="servicegraph.json" style="edgeLabel;html=1;align=center;verticalAlign=bottom;resizable=0;points=[];" parent="E1xS29n1x0knLpVKt5oC-11" vertex="1" connectable="0">
          <mxGeometry x="-0.4514" relative="1" as="geometry">
            <mxPoint as="offset" />
          </mxGeometry>
        </mxCell>
        <mxCell id="TxRCmzSdzR-7Pf7vOkcd-14" value="Kubernetes cluster" style="edgeLabel;html=1;align=center;verticalAlign=bottom;resizable=0;points=[];fontSize=15;" parent="E1xS29n1x0knLpVKt5oC-11" vertex="1" connectable="0">
          <mxGeometry x="-0.4514" relative="1" as="geometry">
            <mxPoint x="18.63" y="-156" as="offset" />
          </mxGeometry>
        </mxCell>
        <mxCell id="qLfok4U49upxel9pCJrx-18" value="Kubernetes cluster" style="edgeLabel;html=1;align=center;verticalAlign=bottom;resizable=0;points=[];fontSize=15;" parent="E1xS29n1x0knLpVKt5oC-11" vertex="1" connectable="0">
          <mxGeometry x="-0.4514" relative="1" as="geometry">
            <mxPoint x="507.63" y="490" as="offset" />
          </mxGeometry>
        </mxCell>
        <mxCell id="E1xS29n1x0knLpVKt5oC-13" style="edgeStyle=orthogonalEdgeStyle;rounded=0;orthogonalLoop=1;jettySize=auto;html=1;entryX=0;entryY=0.75;entryDx=0;entryDy=0;" parent="E1xS29n1x0knLpVKt5oC-2" source="E1xS29n1x0knLpVKt5oC-6" target="E1xS29n1x0knLpVKt5oC-10" edge="1">
          <mxGeometry relative="1" as="geometry">
            <Array as="points">
              <mxPoint x="390" y="134" />
              <mxPoint x="390" y="109" />
            </Array>
          </mxGeometry>
        </mxCell>
        <mxCell id="E1xS29n1x0knLpVKt5oC-14" value="workmodel.json" style="edgeLabel;html=1;align=center;verticalAlign=top;resizable=0;points=[];" parent="E1xS29n1x0knLpVKt5oC-13" vertex="1" connectable="0">
          <mxGeometry x="-0.4171" relative="1" as="geometry">
            <mxPoint as="offset" />
          </mxGeometry>
        </mxCell>
        <mxCell id="E1xS29n1x0knLpVKt5oC-15" value="" style="dashed=0;outlineConnect=0;html=1;align=center;labelPosition=center;verticalLabelPosition=bottom;verticalAlign=top;shape=mxgraph.weblogos.json_2;aspect=fixed;" parent="E1xS29n1x0knLpVKt5oC-2" vertex="1">
          <mxGeometry x="300" y="160" width="63.81" height="20" as="geometry" />
        </mxCell>
        <mxCell id="E1xS29n1x0knLpVKt5oC-16" value="" style="dashed=0;outlineConnect=0;html=1;align=center;labelPosition=center;verticalLabelPosition=bottom;verticalAlign=top;shape=mxgraph.weblogos.json_2;aspect=fixed;" parent="E1xS29n1x0knLpVKt5oC-2" vertex="1">
          <mxGeometry x="300" y="10" width="63.81" height="20" as="geometry" />
        </mxCell>
        <mxCell id="E1xS29n1x0knLpVKt5oC-17" value="Workload Parameters" style="text;html=1;align=center;verticalAlign=middle;whiteSpace=wrap;rounded=0;strokeColor=#000000;" parent="E1xS29n1x0knLpVKt5oC-2" vertex="1">
          <mxGeometry y="234.25" width="90" height="39.5" as="geometry" />
        </mxCell>
        <mxCell id="E1xS29n1x0knLpVKt5oC-18" value="Workload Generator" style="rounded=1;whiteSpace=wrap;html=1;fillColor=#d5e8d4;strokeColor=#82b366;" parent="E1xS29n1x0knLpVKt5oC-2" vertex="1">
          <mxGeometry x="120" y="224" width="160" height="60" as="geometry" />
        </mxCell>
        <mxCell id="E1xS29n1x0knLpVKt5oC-19" value="" style="edgeStyle=orthogonalEdgeStyle;rounded=0;orthogonalLoop=1;jettySize=auto;html=1;" parent="E1xS29n1x0knLpVKt5oC-2" source="E1xS29n1x0knLpVKt5oC-17" target="E1xS29n1x0knLpVKt5oC-18" edge="1">
          <mxGeometry relative="1" as="geometry" />
        </mxCell>
        <mxCell id="E1xS29n1x0knLpVKt5oC-20" style="edgeStyle=orthogonalEdgeStyle;rounded=0;orthogonalLoop=1;jettySize=auto;html=1;entryX=0;entryY=0.5;entryDx=0;entryDy=0;" parent="E1xS29n1x0knLpVKt5oC-2" source="E1xS29n1x0knLpVKt5oC-18" target="E1xS29n1x0knLpVKt5oC-23" edge="1">
          <mxGeometry relative="1" as="geometry">
            <mxPoint x="430" y="254" as="targetPoint" />
            <Array as="points" />
          </mxGeometry>
        </mxCell>
        <mxCell id="E1xS29n1x0knLpVKt5oC-21" value="workload.json" style="edgeLabel;html=1;align=center;verticalAlign=bottom;resizable=0;points=[];" parent="E1xS29n1x0knLpVKt5oC-20" vertex="1" connectable="0">
          <mxGeometry x="-0.12" y="1" relative="1" as="geometry">
            <mxPoint as="offset" />
          </mxGeometry>
        </mxCell>
        <mxCell id="E1xS29n1x0knLpVKt5oC-22" value="" style="dashed=0;outlineConnect=0;html=1;align=center;labelPosition=center;verticalLabelPosition=bottom;verticalAlign=top;shape=mxgraph.weblogos.json_2;aspect=fixed;" parent="E1xS29n1x0knLpVKt5oC-2" vertex="1">
          <mxGeometry x="315" y="264" width="63.81" height="20" as="geometry" />
        </mxCell>
        <mxCell id="E1xS29n1x0knLpVKt5oC-23" value="Runner" style="rounded=1;whiteSpace=wrap;html=1;fillColor=#f8cecc;strokeColor=#b85450;" parent="E1xS29n1x0knLpVKt5oC-2" vertex="1">
          <mxGeometry x="430" y="224" width="120" height="60" as="geometry" />
        </mxCell>
        <mxCell id="E1xS29n1x0knLpVKt5oC-24" value="YAML files" style="text;html=1;strokeColor=none;fillColor=none;align=center;verticalAlign=middle;whiteSpace=wrap;rounded=0;" parent="E1xS29n1x0knLpVKt5oC-2" vertex="1">
          <mxGeometry x="595.09" y="96.44999999999982" width="70" height="20" as="geometry" />
        </mxCell>
        <mxCell id="E1xS29n1x0knLpVKt5oC-25" value="" style="aspect=fixed;html=1;points=[];align=center;image;fontSize=12;image=img/lib/mscae/Kubernetes.svg;strokeColor=#FF0000;fillColor=#ffffff;gradientColor=none;" parent="E1xS29n1x0knLpVKt5oC-2" vertex="1">
          <mxGeometry x="617.12" y="71.54999999999973" width="25.94" height="24.9" as="geometry" />
        </mxCell>
        <mxCell id="E1xS29n1x0knLpVKt5oC-26" value="" style="edgeStyle=orthogonalEdgeStyle;rounded=0;orthogonalLoop=1;jettySize=auto;html=1;exitX=1;exitY=0.5;exitDx=0;exitDy=0;" parent="E1xS29n1x0knLpVKt5oC-2" source="E1xS29n1x0knLpVKt5oC-23" edge="1">
          <mxGeometry relative="1" as="geometry">
            <mxPoint x="550" y="254" as="sourcePoint" />
            <mxPoint x="590.5900000000005" y="254" as="targetPoint" />
          </mxGeometry>
        </mxCell>
        <mxCell id="E1xS29n1x0knLpVKt5oC-27" value="Simulation Data" style="text;html=1;strokeColor=none;fillColor=none;align=center;verticalAlign=middle;whiteSpace=wrap;rounded=0;" parent="E1xS29n1x0knLpVKt5oC-2" vertex="1">
          <mxGeometry x="595.09" y="260.2800000000002" width="70" height="20" as="geometry" />
        </mxCell>
        <mxCell id="E1xS29n1x0knLpVKt5oC-28" value="" style="shape=image;verticalLabelPosition=bottom;labelBackgroundColor=#ffffff;verticalAlign=top;aspect=fixed;imageAspect=0;image=data:image/png,iVBORw0KGgoAAAANSUhEUgAAAf4AAAIACAMAAABUwf7jAAAABGdBTUEAALGPC/xhBQAAAAFzUkdCAK7OHOkAAAMAUExURUdwTP8AANdLMf9/ANdOMdtNMdxLLtpOMdhOMdlNL98/P8xmM/9VVdpMLr8/P9pLMeVMM9pNMdpOLthOLtpIJNdLLtRVKtdLMddOMddMLtlOMdpINtdLMeJVONdOMddOJ9RVKtpOMddLLtpOLthNMdpLMddLMNpMMdhOMdlOMNRVKtBFLtpOMddOLt1MM9pNMNpNMd1VM9pRLddOMdpNMNxRLtlNMdhMM9lOL9hMMdpLLtlOMtpNMdtNMtpOMdxLMNpML9pNMtlMMdtNL99KNdpNMddOL9pLLtdOLdlNMd9PL9hNMNpNMdpLMdlOMdlOLtdNMdlML9hNMtpQM9lOM9pNMddML9lOMNdOMdhNMN1NLNlOMNpMMddLMdhOMddPM9pOMdlPMNlNMdtPMuFLLdlLMNpNMdpLMdlOMdlMMdpOMNlLL9lOL9pNMdlNMNlPMdhOL9pOL9pNMdtOMdZRM9lPL9pOMdlNMdlOL9pOMNpPMNhNLtlNMdhOMtpOMNlOMdpNMNlNMNhOLtlOMdpOMdpMLttMM9pOMdpML9hOLthOLtlNMttOL9pOL9hOMdpMMNlOL9pOMNhOMNpOL9hPMdlQMdpOMNdLMdpOMdpOMNlOL9pML9pNMdpNMNlOMNpOMdpNMNpOMNpMMNlNMdlNMN5KMdlNMdhOMNpMLtpOMdlPMtpNMNtOMNlMMNlOMNlOMdtPL9lNL9hNL9hMMNlOMdpOMNpPMdpOL9pOMdtPMNlOL9pNMNpOMNpNMtdPL9hNL9pNMdlOMdpOMNpOMNlOMdlOMdpNMNpOMdlNMNlOMNlOMdlLNNpOLtpOMdpIMNpNMNpOMNhOMdpNMdhML9pNMtpNMNlOMdlMMNhMMNpOMdlNMNtNMNtPNNpNLtpOMdpMMdpMMNpMMNpNMNlOMNpNMNhMM9lNMNhPMNpOL9ZQLthMM9pOMdpLMdlOMdtMMdpOMdhOMdtMMdlQL9ZQNdlMMdlNMNpNMdhNMdlNMdlNMdxQMtlOMNhOL9pOMdtNMdpOMUeprQUAAAD/dFJOUwAB/QL+JCyM1MwIBQP6BPkK7fv1B/wG6fjw7g7vCRoNDPT26y7y4rToiRIL5PEeY7UPHOquFqsUt0PlUdlWiyVGOMUrGJv37CekEJ5381jg47FCIzfP3I80shdeU866LXFKgEcRL5HfPpAqG6KhjmfH0YpOGTCmv+eTWiGBa3h8qLjGld7LMmGn4dtmQVu5P0vds5JXKW/VaFR1wVxpo8pFvciHeh9tzeagPZhVdER7QGCXSYJ+Tby2OmWErUwgO3aWw3/TqpSfX4iwIjGvFcKZcslQcIOcnTWFWU8d1tC70mp9qY08eWTXJiiG2NpdYsA5NhO+c5qlUmwzbqzESA7iNIcAACAASURBVHja7F15fE3XFr6SmEIkuQlBEpEQiUTEPNY8pTHEUHMQQw0xBU8NMcRMa4yp5qKqKCmKouanvFJq1qqf1/LrrO95bdV7bX/74UpyhzPsfc65d3/n3vP9vc6669vfPcNee+21TSYDBjwEJXqlD224PnHD9ZPTb1Qedurmxvv3N9481b3yjeknV21IXH9tZ3rtEsYouRciKo4bnTNqRLWr3cr4EFn4hHW7Wm3EqJzR4ypGGGOnYwSk95/a+M/tgUQxAovWafxV/5XhxljqCpf2pJ3bEkI0Q2xG27T6l4xxhUfwxfMP7sUSpyC2b+HeF4ONMcZE+NBpWXfNxMkwr85qt9PXGG0o1H7yYIsfcRn8MxpfM94FECiQfmTH64QDHp77dmUBY/x54vtV2YGEI9r0fKegoQKfed2xWcsIALpNWhpgqOFarLxyrzSBQevFaT8YmrjqE//OrhQChyH7xhkTAudP7K/NjySgaP/7HSMt4ESUOrgxgUCjzIilxQydnIFi+8+FER2gbNuBxqqhxvCu3yqQ6AYVHnc2MgLaYfjXKURnmJ1TztBNCxQfl12S6BAlOx0rbqinEsePNiC6RZUPthkKqvjae6+vD9E1vGakGjMBZSj3Y03iBgj5vKWhJTP6jfQnbgL/ti0MPZnQdDFxK9TbY2hK/co/P4a4HbquN5JBNEhuV4W4JTquDTXUlUHLUe2J2yK6cG1DYQnUbRxE3BqR/4gzVBbBoKPtidsjYUp1Q2kBhB4oQzwCZXPKG2rbIX5aIPEYVFgbYChuBd+0EB4ymLOPnFjCJa08cZVRF5SLAos68pAgNu3ZVo1sTk+ASl8Ywj/HfzJ4DH/Ujedv4MP8XgF/9TC0N5UbweXpW7SL5ecvc/wE8Dnn6YtBvtP51O0uL2X5/ROc80DTPPoT4L0hfApx9uYG0Ir3JGDZE48V/+I6PkNeumHewwcg1fBrRc9M85zy4jPerfMXXzsgZAFKTvLAJkJ3eK3reaXmB1ELIw1UaamHid+rDrexXmUVRggBwXyPWgpMLMttoJdbhZGJkwcOPO8x4nfZzG+Yr1oX3nYgQOib6RHiFz8ZxW+Mw45bh1IYaiEo6DcP2BZysQ/PIU61iWU+2ErgnFfdXHzvb/x4jm+WbTT30FaC/dp5u7P6Vf/Nt9Cil204fQgcfq3hvuqv4LxBP9EungV48pPANW4qfsQIziPb3D6iSgQRbcu7o/qPuLdhe2Qf0l1I+Um3V9xvujeA+yb9jxyC2oQpPzF/7WZTwMyZ/Me0iUNUEwgqTrtVY4CDAAurtxzDqgMrPynb330m+zcAmjR4JTkG9jmu/MTnjJt0h4qrhzCcnwpE1psgIybZHdQfPxtiMJsJhPYKtPykWz/9q987CmIoM4RiS8aWnwRN1rn4xWaBjGSiYHgPwfUng3XdGKrcTJBhjI4XjO8WuvzktI63AhyORRnFVsIB7oWXn7zbTLcrPDgnLhwWqTvCl59EpepT/Wk4LRmriM2h9dBGyGe3DsUv8RhoBD8Wi/Ix0QNO6W4JIGIG0vh1FgvzmC7kJzE6WwOuAdWZr43o3eOrk1ZSfXTVHn481jv1vnikn+hDflJJRxnA/WAdut4UD3WeTuQnCU31ov4RtOMXksRjTfbXi/7mefpQ/wpc5kQqWr08/Z9OAFfpQf0zcONWRyrcRkQ/eBtf/bF4o5YjFW94tBrXrV1bv/ojuPgFZgHeNEslQx6pwnNIZxdXsQ2GLgEqvgPxmSm9caa+csezMxNdzeUW8C6wYmcR1Q+UeWClKHW8rKrJ9d2J5sOeCuEbA/nBVFQm7AEK/aZUNdXgsKrVCbQXXPwhzO/lWjJxH1emYdhKk+kPHnz6BiCqH466aWKwXOSKmo34L3l6JZ8Dpzb74qlf6kPU2fJvcqFPVuL1yNMLAzjVs8TAVQAW/wg2WfKzXOzBCo4SOPfsws68KJ0FKwDwfhk3VyZfLDWM2ec/w59dd4Abpx1Y8//PgFOl+2WjT2d+8VsasXJ8381CUn8UcqZ8qHz8zRldTrNcNpEjq7E46t+AXii5LU/gPJvHLZbUW22utA6gqN8OWn1C0S0tnKnpUMnxlqt28uV1BUP9qdjqE5rjs5ezOOwOUik0GkH9NT7g8idRkCjE4C82QmW2WCt4jeOvfrPW4OqTCzQ0miu46bhPd4K4HwZ1oSa6+oSqRpq+08PqvJRLJ+7UJnJuART3E7z6hOrYdF/qFvP5T9zL/Lmt5nogcLDrR+AQ82SbrkBiMKW3OfmXdAX4b2/mmP4v8Jrr+fYw9RvLNE2LouPSgtLdwfxLIJpD7OAnP4/OWAOe/m71ygx9wWtSkqHrRLHd6oohCPKTM7zUT+TB1lK7M/4l6gt+omRDN4tvZHUFSEvgn/mo/5aZB1kfy4d8RDXaC5pT0glIoHA223qlFaQhuP/7PNRvwqlT55EXBQa0Bdo9aQnto3D2h/UFr4NMbcpecL368UU4ke2UW2JA2R++LS2jufK+Emw6RBUBkZ90DXe5/FncUl25z98SdMvtjakpbZf1NUnBx6IrMMLV6qfx45p34FnodzTm9AtjX8n6SrexrwcjP5nqWvWXmPlRrZ8XRRLN6e8dqEkNkqvcXGdrD1Tg5nfYleoP59mw70h+HDR9+YZq90LrbWv+ACiz3cCF7R9LZfBkutUqEord+QXpeTWV9hQdYGu+G2ll47LrNn+d4krUulNPS/n8bwBDvXIlpjkEVmuAYa5S/zxfnpuYSo1qsjA7KulqiZ01WD/4L1yj/njOBR4hNjes3LLbVRZqBaU8VbFfOqyLJX+QS5p/BfBe4i9rE47c9vwsJnKXJTx1d7AOxNK/iCv2/nEvcWpjYpl9b2Ui94aEp2aqtwc4Gx87X/073ElWsA3otrT1G0zsksWn/gscrXeByS/TxkYD/K0Cd44hdiFlS1p3ZuNXS9TRckfjDWjyh9R2cn3PYv4cY+1iOiFpzdgMN1XU0UJHY7yjoKq5bao/D++yvIITWKsXxRIJgQJ7qoP94fT/rzPVr4hwPkcD+6jW0CYJaNBKxNFGIeNNcPK3buE89X0hVrjH2IdVQqJ/OPNS6BKWpEp3OPnJGOd1fpoEQdCxfEeij+w3zF83wiVcXr8IGT/Bk18gPaER9qPObqt6iRqzn4RcWNBPhqBtXcD9jT5NnaN+aEcMfmsdQxOfjwxnpin8OT9F2Lgr4O2/oLwbrvPlY4VjaJMpU0RUSBFyJFI1ANjAWjBDoR4nUB50AucaxosdyXNIAVGhp39QKWHbzojyeznh5MfguyjshBI580VsHyhgKvT0nyFW+BKNqH8R7Tf+fYDCLVJoy+Yalumagqd/OzFbyCbW2vf9KeSHQm2d4K4DkRqELiZtnv6PxGwnQ8rvv1Jb9b0zYKgVFgywk2ZffkJP/yjRp2loaUj9/9K27eMqHGaNBAMcreUKiEPJ3wRx256Q8mtb+L8N6GC+TMEIv9TyHehwIs0NcdtFmPJH19BQfqD9LGKlm4LLEQoTYEsZcofxkZj699RO/VQgWmLPc6HmLGaF+a94f7s8apyEMWoz62uaLfQNAWI1QCTIcQK2W5QytqsgeEnK9i1Q+buV0kj+t5FYLRQJsrrAsk9lpYy32voZKTkpWgCq/0mNyvuQDmSOFP1PC6y+7FdK+aCtH+kSmjOg8kf30kR+qLP5shmKEUqGKqV8iTLp8xzDS4Lqf1ML9W9DrWmL34grHGybKydtM/M3hyutDuYLr7kayD8TitL3onFmOthOV076U2s/Y2SM64PKT06rVx8rqT1EIlKH7sIqGh5PsfYj2znx76j6N1KrfkBHKD67JEK1P0M0REXe26aIL03OOhFV/hS1u/4GYPFpKBGq/ZEyG1XQ/sHakexGoeCJqPpPV6f+l1FQbKLiJWK1X/NfoYJ3Ceu83y+y5tNQ5Y8crkr+VlhsJI/jbWJr21pVxaNVbVMDiirYMFT996kZhC5mLDKLJCv0bQv+Oqn631t9+vfVUy2UPfyOqxiEkVhc/KXzOH1sjHurkr9xviOafRODElD1v6V8DJLA8lkx0uH+bvO3T1Yl/5v5nr5lnikiwVxQ8RhkgVGZJx1ujrVtPXXfvFY93qg6JoYGour/stIh6Ae2hckcJx2vTdp3sjr5k/I9xVFdsBtVfq90hUOAlsuW+wbrYWWboLLJtW/eX5+yXDQ4BVX/s8pGYC4aj3/JBJyszRePBSGsifMOqPL7vKpoAGLAaJSWPbTM6jC2oWrln5PrqZXCEiEcfKKEfzM0Fn/Khjwmz3aZ6jr3vIl/O32ujFtDydpXXzQSDWVDzu/xtVv1Smfeoc6pes2SqJoF/Q+NQ5h815K8+vygQarlz0vj0785hweh6s/+9n8NjQJF6VIO8/taHHmH+jIsHaBW/bF3OKpqRqOwUD7oxFzbiurl3/PCVQhLcUQD1Mw/68LfKDQGVSiO4s3dnTNBgxq33ENdmfYK7EW9/ceyka8erUcCud8r9TWQP+6FryyWi7zHgMpfJoKJ/Fo4AjTtCrdZTGdqUeBcwN/ijK0j+EDU2z+NhUWxjmjh96EJu7zFtr8W8ufWeo9mu+oQqPwpLEf9rIcL/zpV3M/v2KKaqJ+b9mP8L/VAzf2wtLmBa1dnputU/rzkcqA28r/IeRdivOwsqPwMN8UeuOBj6AJ/+NT0Q23UN7W1/HJ1xsuSULd8vU9NoR5c7JT7FYo+fU5o1dXIsss3WunfRq93kMnUBO79FUbZpnoCIbM0Ut90/fkvf8d8XaYfpvw+tF3OKsOF/hll5D3/z96Zh9d05nH8lVwlN7nJjSWSiASJNSHWoKLUFpSxq1CUULRjeEYtaWuJrYraS2prtCaU6EwtpWOsTbVqtDWMp2YIXaz1YGifPsO0Z+69WW9yl3PPyX3f7/ve9/v/Ob/v/X1yTs67/X5KbJvywp9ftEdDWdCvQR//H1WO+mrAOb+mMvPfe9CwWd0H0CTPL/wT6OM/U93Y7zk44wvUrt6//7dyo0/iPHlk7NQN9PFXV+0nA873PrWJPzSs/PAPs4XO1nDladCP/2aq3l1+cL5Vb1WvXX70SZAtDzlaLp2Oib+6mlp/eOeVphAmsn0C7dT+fwNPKqpcBiXAuf6WDX7b6l1HTZdmYOJ/w/2i+WE406aHbPDbNjtqqw6FWu7lN7fO+8N5/oINfbLFEjtcz5sDT24HRtF4X60dGOG39unpp/Hae5j4Te5GRtvgLPcxM8JvbVi7XeO1RtATn8fc+K4M53g6I/q2U1sZel4dgBqsboMjkKaywj9Bz99eR9BtH7dcusarUhAVxgp/RUv0dM1Xb8XE/51L03fg/D7Dij4xKk6bd6peMIRTrivP4/D8dmKGn6QoymPNF9eKwOTvqtjDRTi3LYPY4R+sKHe1X30BE7+r99kSOLfH2dG3zoAd1n71Mkz8LrYvLcJzm8UQ/xpFOar9an/QA39xHO3yighkiP+s6/+U7vQCJv6LTg2Ph/M6nSF90l5R9HTDO4qJf4kzvw/wvK5liT9OUWJ0XO5fA5O/sx4fT8E5DanJEr/Z4KerRBDonj9nh1bXwznNIEzVr4muy89h4nfSm6YpntPNbPFfSdB1ee0QTP6OS31MhvNpiGaLf80dfdeDzvsnOjR7Bs5nAFv6ZKlOA9sw8Sc58hoIV8/Fw8oa5a9B9/Vd/wATf0QwH5OU7RjjN+vrCEKC+2Dy38nFlF93I2P8ZL/O60E3fDua+LsK5/IAa/pkp94/H0z8DgolvYTn8jpz/HpXHDph4jd0LeM0Ec/lN4R3NQfd8fd5Gaf/g/MY5c89fluxIUDNLe0zCG9vUiv+6ZPFmPhDS69lTMPzmC0A/t6Y+JVRpXz+F8/iIAHwjwbFnwn/ljIZBcB/CRR/6e7m9eEcDhaAPqkAOu+3AP6vtJsI+Ml20Mf/ZTuXgE3oJguBH7TMj/K2nct0PIOPhMB/CBT/RDuXI+D8hYQJgf91UPwL7bYl4dX0CBCCPhkAir9KfAmTeBXcVZfxBVdHUPx2jdEAG9D9LAZ+Iyr+OSVMjsSz114M/CQKFH/Jxq6AhYimCYL/Jij+2GKLLQDtNRcE/wzUt3/xxM9ePHOhgtAnSaj4OyEvSwaIgn8PKv7iHve/4JlLEgX/P1HxF3f1zsUz10gU/LtR8ecVOgwEbD6TKQr+paj4QwrP+iB2HxBl2E/WouIvaoq9CdBblij4P4LFX9jVtxGgt49Fwd8OFn9hk7K2gN7iRMH/NCz+wq6uiAXoTouCfxEs/vr5BnshehsmCv4usPgL+hQ9QrQWLwr+irj481fVngN0ZqggCv7TuPjPwc5L1RGFPjmCi/95m8GTgM5qCIO/KS7+F2wGmwE6aykM/ku4+FNtBtcDOhNmuZ+8iov/qs1gVfm/34vqiIu/ntVfa0RnfsLgj8PFr1ibIw+CdGaWk77e11DYFcmXRcHfCRi/9ZznbEhnT4iCPwcY/waLv12QzgaIgn8zMP75Fn8NIJ39SxT83wHjtw78/wH7XhJCx4Hxz7P4GwI8ISmA+gPjT7b4w+w1u1oU/COA8YcSEozpbL0o+KOA8fv5k2GYzsKDxKDfS0FWG/IiqLOKYuAfBI2/B5kA6kyQcx7DofEftTaqhdQnYuBvBI1/KvkrqLP+YuBvBo3/HuiUv6I8KQb+mdD4NwD2bS5QCxHoR0PTV06Rz1CtdRABf3ts/BdIK1Rr6fLLz+tKwv02yRUB/zxs/KnkCqo1Q2v+6ZtN2PgzyFew3jbJnV7e1gzyLqy3nvzj/yM4/s7AC5Kh/K/65IHjD4A841OgCbzTbwFO3/J5vQTX3ETe8Wei408G7OBWpPq8H/Jfjo6/L2kI7O4a3/THmtDx7yCRwO728I3/Hjp9JRTyfG+hIqtxjX8kPP4+pAqyPa6XfaL94PGbiAHZ3hWe8R+Dp6/4kRBkewaeqzsm4+PvTupB+6vEL/2/4NNXmpAUaH+RZm7xJ3GAvyVkQd8SmsUr/ZeqcIA/gYzHNjjEn1P873FAX1kF/4Gylk/68ZE84L9JroI7zONz4v88D/SVPBKAbpHL015h/bjA/w7prMjH3weXevN1ArfHbJF+xx/9avX5wH8Af01aWRLIHf7HfNBXDpJUfJPreKMfU4MT/GfI915/wUydPTdZ18JSyljO8JdD396Q7d02D/L6EZzF3u8w3aSW9XlY8fPiVZpvcZIv+pfq6kpY1SnzE/9u/YcX7PWqWyfJIa+/YYoW7R/u/aSZpiWG6uO4wj9d+6Ny/9m7XYr2tw/wOprXKMxPpNrlZuCb6e94vAduHk+DP21LfSkjT3WoaP8z13gdTTa56/UYpjZlxkX/OT+3r0f3mMzRjM9lTxO0o8G+c03L3qiC96eOXiGjFQp/Y47UtX2jjao3GkZEc4N/vyep6dtqzuiuTm501Ptk0sgD7wdZ6DRVwYtm9VT3RchNlc/b4eqSYkhefOyDxq7uNN/7ZB6RgRSGl11cJqz11Pfuu38NfMgH/SAVR2ar505atzPG3Z0CY70P5ghpTgH/D26zZnkNbHFdW7rJES7w91YxnK+l6k7/pgCmNqGx07tlmKof3HrqqY3Oh8wneDjwGxfifjivUhRKgYdbwtA45ZWj+kcHD81e3NfZIBVetRyflw4/UXI4r05dKTyW1uJ5NE54b/Xsp0e//UPn7mVu4rcMHv/XDt58/Y9d03JY6ToFLFctcTZSiGPo4fHPDxw66/c37ZcKGqK393rF/ldXGbFnuNbK1P4LKGD5iVDakKyxOUfNAb2TSuThV+yl37f6FFsd/+nunWYd91pJg8pcS6BKNAI1idGeicZZs5OG5L8HdiHTr1mwa3ZmgzErv9R7swwaVBpZAs2isrL8WG9uV5x/P8+kfItL33+15Vtq9ZiPymV+8jaVo5eZtF4zyqry2K8fNu3NWrD4J8xOG1ZuN6PTXPE3SyRK7TxyiJRqtalLhYn1g9xMB3+AhKpeY6ggMRitsShtTOskqapVPJ1ztztswSi18fxKYlUrSkeE5tmCzaUTTJyuzN6WcQcdIL/Yop2ihP+EBKtO2ZSAXLRFm0wpmpImyapaN6L08Cs3bOHSaOHfXkGyVaGztHh8YAt3i1Y4Hk/r0VdMS1o4BuavrVGrPboqTNJ1q9do0QgJzg+YS+3xPyvpulPrPrRg5BVEnE4Nf1QbydeN9lCDsaUgIsVGnnskX9e6Ta8g2IaCkKPp4febJgm7FMW+eoXjcJo9RzrLwZ8rUXwSlaKtczSLkN2TjJ0rjGKZvdiiqBsp4k+RX3/OdZ0iiJ+KoqZTjKpMkpSdqSnN3hrFjbKW0sRfMNcoVVZnaGJILAr7NFX8C8wStEPR7fb+TVHceLotPSZK0o5UM4EmBL8Sm2bp9nL0uyZZO9BxqhCSS0TuSTWyskS+/stqBd1XcMkv8M108fNWqY2GalHupru0ROw4yvgNWZJ3KaVTRvBiidj+EZSDJ4yVwO2URbmhXqTd5HtbyviVTyXxkhqbQDn/DezCz6GNn5dSTZREve3Xdbvwy6jj71NRQi9SIvX0T7CLb6bfdixAbvwrVI86tJMfYrR3sJA6fuUPknvBmI9+O60ppSxMpI/fcFiSt6kb/dyXbo6bQ9+CEtpUorfoLoPUl26PFs3AgzIlUMIn4+oyyHzr0i7usOD/rKTfawiDvFcuY2MiC/yy5It/MxZpr1TGRxoT/PV6+Dj+p5ikvV0ZH8a6TIxcru3T9IczSXodB1MuB5k4UZJ8mf7H4UxynurASjYb/Epv36U/MJZNyjc78NKREX4/ny360TiZUcpfdeRmCCMzkT66+GPcyCjhdxzaSWfkRlkf44v0/Vuxyrfj2ZaVrOwo/X3x3OcuZul2/N/WHM7M0I++R38fs2TXNTp2tJyZI+VzX6O/m12umzmxNIudJZOPlfxcyi7Vtir+jtTVj52nqpV9SgwzXd1pp5EZipTwGun0lZQpkyO+bjjF/2V1mR3RZXLRNvqKTI/oOujig/SGTI/ocnW8pnEVmR+xFdLL1Xi0rUyQ2Ep1OR3xoUyQ2Nrket9piMyQyOruZnF1tUyRyGrlZjI6R6ZIZJ1zgz+spcyRuJoZjLnxXIqK3O+r6CGTJKwMA90vRW+UaRJVW1XsRNgk0ySq1DTSM0bKPImplGpqNiKtkYkSU+qq6YySiRJTb6nbh/iuzJSI+lXlNtREmSoRpbaQZnwEfW8XKvmUPqOf4SgzcMkJHzvm+QT9DJ9Sba6FSeIXDb8pWr27nhK/aPg96Z83TeIXDf8oT+wdkPjFwr/cI3t7JX6x8Gd55q+yxC8S/jwP/b0u8YuEf7iH/sJ2SPzi4E/wuHb2NolfHPzHPDY4to7ELwr+es09d3hK4hcF/yENDh/Wk/jFwB+hqWfmPolfDPz7NVlsHinxi4A/paY2j3+W+EXAr7Vkeu1YiZ9//DXitZrcIPHzj/95zSbNDSV+3vE/adTucp3Ezzv+WTpcVusn8fON/w1djbIzJX6+8d/QZTP4ssTPM/7cIH0+0yR+nvG302u0gcTPL/4vdBu9Zfp/e+f+FFUZxvF3l9Vid1kWEAGRuCOgroIoF7kKiiuKJiKIGIqA4gWTEAxtHJVLiEiNomIqXsAbNVI65AW0mrymeZlGLW0SzEpnnMoxq5km+6GZZpo0Fc553uc9+3z+guf7/e455z3P8553KX5R47eVwNUCil/U+AslqDRoCMUvZvz+kvxB3gKKX8z4B0lSqn4hxS9i/NOspKl1NcUvYvz7pCq2jeIXL/5bkhW7xIviFy1+hybpqh1L8YsW/y8SVmuYRvGLFX+5XspyKxwpfpHit8+Vtt5oil+k+HdKXK/bZIpfnPjvaaUuOJziFyZ+TYv0FZ+i+EWJf6QMFQf6U/xixL94jBwlr6P4xYi/Xp6ap1D8IsR/XqaaE+hfvgTAaahcv9lWMhc/M+S7ZzWTu9g5KeMjy/gD+YubDVo5lyznbMlhzDjnyrtk/Ygsxsx0md9YVNvJY7ysUcn9xhpsRy5jxbtI/o5FPdmMlesQHaur5DNOmkEalsaF5DRGdmtB4mcpfclrfNgdgxpYvKUht7GhjoUbWGWT3djYDzivVPUjv3FxVgUYPxszmRzHRKQrA8XHgTzHg2c89H6VGjIdD1Hw+5XWkutY+JbDdjXdOxwF+1kjYwJHM7YbeGxXDIzkp3gTtr2bjfy8+HoMH8kp/LZ+LsMW/0FuVvgf46U5bhQvzUexxV/IywmHa/xEZ/Lq/q7EFv8VXr3e6zxVv8dJdRu2+Hm1Qdfzlf0xH9UjsMVfzseHPM6y9YO5yI7AFj+fLXAvW/HW7TGNi3B3XOmHcjGh3Mhf+Ut+PJSn44r/OA8PZmVgkH7Hn4P0I7ji38XBgj0pOLRncXjwXcUVvxneAe94LOLTB4KL34Ar/lXgBrhU4FG/D3z6r0nAlL4JfsJ/GJP+WGdo/VMxya+GVj9qIq6732v2wAYUY1IfAizeph1b3yNZDeuArxaPdg8vWO3qKIaOH4HHP5l4pANvfNNUMoT8brFTH+B5zxsMJdWg938bNGt/kyPonf97hpQaUB/Q7Pg5Cqna/iuGluG2gEZM0OEQrYVsejtfZ4iZCbkGHoRDcwegZIdtDDWzfeG8uKfHoNgwC07xwNsMOff7wLnxvoV1/OzSGXp8nOCe/ghaPx6LweT6ZzEBGD0AzJDv+KtdCibWL4YJgelFsLmXibfWHmCfOty8wQQh6EMoT6bwlvoNlNI1rkwYdKegXOE8/DgNpXOkgYlEJ9Ri+CWeKpuAtjlpGplgbAZqAL6i4qfR6iegVl8yE45aoAYAx9Y/ULPf7jYTkLtlMBOwWF4CW2F2OEy+w4Rk6A6Yi4PT+3AdzOGmK0KZoGjngxi0iotBGTC9/iQtE5cOGwiLRrhxaPY2QCizXcCE5ucICJeW9wa/sT0AnvO5jAAAA81JREFUGWpMYoKTAXIAWAhwV0QH8l17yVAmPIY0CKfO9oLU5HYIQtMLeqYEkj0h2j9GOEHuEO2ecVFMIfSE+ALyMtidsmg3gJzIOUwxBJ0FMKysDujHDHGeRZsrUxJbAPaAurRCKBkOMOZxqGYK4y7AGUCag7IfdaQPALj0rUczxdE7GqBFvn2uvCJMFwCGGGd0TImEA2wCtBsup4J1AG3+CS1MoQS2Adw5i2WbAGT8AVD+sBymXAYBtAC8N8tSuqoSYAPDuEqmaGIuA1xBFxZJX3j6qwCF70hhCkd/CeAYKPVFibcA3kgCWLd6fmHFlM+SNQDXkVdhoHQVh6ZBnFwV1sQsg6mJAG76Rkv0b/bB+RDH1sm0YkHJ58UQEzPnkT7dL/Vcki1EreZQZknMqALZKvVJcrcGwdrSFSBljv+TWRgea2FOAurzQVxXSzz80AWkRHVaf2Z5xFk/gqEq7fZzL6mtZudDHVTfcJ9ZJKpKsG/jE988/RyvgnMrb4EdUh4xVcUsFfedgGcBvz3vyKKnDlN6n6veCnhay6gv+zNL5jPY43BtU/c21vsEPa6SoNx3G/em2oCWM+wYs3RWL3wEjmdkSUhSQXbjpvXrNzVmFySFlER6wleRWssIpl/g/cgCcTpiRdn/fd+N9rK08L0CXCn3fyh63daSwnfOS6DM/4Xpob2lhG/THEx5//clYK+jJYTvmLSEsn4so4vVSg9fbY6hnJ9IzzaNksPXDJtDGf8vuVttFPvMn+9D+T6V4OiBSgzfJWAuZftso4BLVUoLf/x0d8r1mTGU7lZS+NbJBsr0OWcBgxWyCtT0a6E0u0BdXh/xw7fLr6Mku4i2tETsC/9BaS9KsTvEBDiJGr7/mR6UX7fRZS4XsBmoDvtNR9lJQ9NSP7HCr8o2UWoSojqet0eU7CPyD6soMamxmr1SgGWA/8l9lL1M6MMvJmLO3rt5op5SkrUfOPOqHc7sE6/EUm8P4ikQt7QB2buAekf2JNq5CUdojXkIluyd5pWGUiLgN4FrnSu43wQcRyxLp6UeLwLr0xq4bRG1uVyQmUMZcMa4elmYC3T0fQ/tbzGS91geBFkbzWBfZpZt3ZhF6zx0FB0Y++unsu4UtLlpHnugiJzGi85nc0CYDH8gNOBQQE0WDXEEWRK2bCk8US7Jp6PeDScCtrQEkqfi4dGzdVfB+dQuLQz7poYU7Grv6UEuCo9bcG54VEdnnnl5+SzfJ/YK1L5l5WHm/M6OqPDcYC25plAMxpwEU0x8RVzttvb2bbVxFfExpowcoyU27P8C6rIKu/5ZqAwAAAAASUVORK5CYII=;" parent="E1xS29n1x0knLpVKt5oC-2" vertex="1">
          <mxGeometry x="615.595" y="227.72000000000025" width="28.99" height="29.1" as="geometry" />
        </mxCell>
        <mxCell id="E1xS29n1x0knLpVKt5oC-29" style="edgeStyle=orthogonalEdgeStyle;rounded=0;orthogonalLoop=1;jettySize=auto;html=1;entryX=0.5;entryY=0;entryDx=0;entryDy=0;" parent="E1xS29n1x0knLpVKt5oC-2" source="E1xS29n1x0knLpVKt5oC-30" target="E1xS29n1x0knLpVKt5oC-10" edge="1">
          <mxGeometry relative="1" as="geometry" />
        </mxCell>
        <mxCell id="E1xS29n1x0knLpVKt5oC-30" value="Kubernetes Parameters" style="text;html=1;align=center;verticalAlign=middle;whiteSpace=wrap;rounded=0;strokeColor=#000000;" parent="E1xS29n1x0knLpVKt5oC-2" vertex="1">
          <mxGeometry x="436.53999999999996" width="106.91" height="37" as="geometry" />
        </mxCell>
        <mxCell id="TxRCmzSdzR-7Pf7vOkcd-0" value="K8s Deployer" style="rounded=1;whiteSpace=wrap;html=1;fillColor=#dae8fc;strokeColor=#6c8ebf;fontSize=14;" parent="E1xS29n1x0knLpVKt5oC-1" vertex="1">
          <mxGeometry x="361" y="1324" width="120" height="60" as="geometry" />
        </mxCell>
        <mxCell id="qLfok4U49upxel9pCJrx-13" value="" style="edgeStyle=orthogonalEdgeStyle;rounded=0;orthogonalLoop=1;jettySize=auto;html=1;fontSize=12;" parent="E1xS29n1x0knLpVKt5oC-1" source="TxRCmzSdzR-7Pf7vOkcd-6" target="TxRCmzSdzR-7Pf7vOkcd-0" edge="1">
          <mxGeometry relative="1" as="geometry" />
        </mxCell>
        <mxCell id="TxRCmzSdzR-7Pf7vOkcd-6" value="Deployer&lt;br&gt;Parameter" style="strokeWidth=1;html=1;shape=mxgraph.flowchart.document2;whiteSpace=wrap;size=0.25;align=center;fillColor=#FFF2CC;fontSize=14;" parent="E1xS29n1x0knLpVKt5oC-1" vertex="1">
          <mxGeometry x="190" y="1324" width="120" height="60" as="geometry" />
        </mxCell>
        <mxCell id="TxRCmzSdzR-7Pf7vOkcd-8" value="" style="pointerEvents=1;shadow=0;dashed=0;html=1;strokeColor=none;labelPosition=center;verticalLabelPosition=bottom;verticalAlign=top;align=center;outlineConnect=0;shape=mxgraph.veeam2.server_cluster;fontSize=14;fillColor=#3399FF;" parent="E1xS29n1x0knLpVKt5oC-1" vertex="1">
          <mxGeometry x="361" y="1420" width="120" height="60" as="geometry" />
        </mxCell>
        <mxCell id="TxRCmzSdzR-7Pf7vOkcd-9" value="" style="aspect=fixed;html=1;points=[];align=center;image;fontSize=12;image=img/lib/mscae/Kubernetes.svg;strokeColor=#FF0000;fillColor=#ffffff;gradientColor=none;" parent="E1xS29n1x0knLpVKt5oC-1" vertex="1">
          <mxGeometry x="491" y="1419.9999999999998" width="25.94" height="24.9" as="geometry" />
        </mxCell>
        <mxCell id="TxRCmzSdzR-7Pf7vOkcd-11" value="" style="endArrow=classic;html=1;fontSize=14;exitX=0.5;exitY=1;exitDx=0;exitDy=0;" parent="E1xS29n1x0knLpVKt5oC-1" source="TxRCmzSdzR-7Pf7vOkcd-0" edge="1">
          <mxGeometry width="50" height="50" relative="1" as="geometry">
            <mxPoint x="460" y="1450" as="sourcePoint" />
            <mxPoint x="380" y="1410" as="targetPoint" />
          </mxGeometry>
        </mxCell>
        <mxCell id="TxRCmzSdzR-7Pf7vOkcd-12" value="" style="endArrow=classic;html=1;fontSize=14;exitX=0.5;exitY=1;exitDx=0;exitDy=0;" parent="E1xS29n1x0knLpVKt5oC-1" source="TxRCmzSdzR-7Pf7vOkcd-0" target="TxRCmzSdzR-7Pf7vOkcd-8" edge="1">
          <mxGeometry width="50" height="50" relative="1" as="geometry">
            <mxPoint x="431" y="1394" as="sourcePoint" />
            <mxPoint x="390" y="1420" as="targetPoint" />
          </mxGeometry>
        </mxCell>
        <mxCell id="TxRCmzSdzR-7Pf7vOkcd-13" value="" style="endArrow=classic;html=1;fontSize=14;exitX=0.5;exitY=1;exitDx=0;exitDy=0;" parent="E1xS29n1x0knLpVKt5oC-1" source="TxRCmzSdzR-7Pf7vOkcd-0" edge="1">
          <mxGeometry width="50" height="50" relative="1" as="geometry">
            <mxPoint x="431" y="1394" as="sourcePoint" />
            <mxPoint x="460" y="1410" as="targetPoint" />
          </mxGeometry>
        </mxCell>
        <mxCell id="qLfok4U49upxel9pCJrx-9" value="" style="edgeStyle=orthogonalEdgeStyle;rounded=0;orthogonalLoop=1;jettySize=auto;html=1;fontSize=12;" parent="E1xS29n1x0knLpVKt5oC-1" source="qLfok4U49upxel9pCJrx-0" target="qLfok4U49upxel9pCJrx-7" edge="1">
          <mxGeometry relative="1" as="geometry" />
        </mxCell>
        <mxCell id="qLfok4U49upxel9pCJrx-0" value="ServiceGraphGenerator" style="rounded=1;whiteSpace=wrap;html=1;fillColor=#fff2cc;strokeColor=#d6b656;fontSize=14;" parent="E1xS29n1x0knLpVKt5oC-1" vertex="1">
          <mxGeometry x="160" y="1970" width="160" height="60" as="geometry" />
        </mxCell>
        <mxCell id="qLfok4U49upxel9pCJrx-8" style="edgeStyle=orthogonalEdgeStyle;rounded=0;orthogonalLoop=1;jettySize=auto;html=1;entryX=0.5;entryY=1;entryDx=0;entryDy=0;fontSize=12;" parent="E1xS29n1x0knLpVKt5oC-1" source="qLfok4U49upxel9pCJrx-5" target="qLfok4U49upxel9pCJrx-0" edge="1">
          <mxGeometry relative="1" as="geometry" />
        </mxCell>
        <mxCell id="qLfok4U49upxel9pCJrx-5" value="ServiceGraph&lt;br style=&quot;font-size: 12px;&quot;&gt;Parameters" style="html=1;shape=mxgraph.flowchart.document2;whiteSpace=wrap;size=0.25;align=center;fontSize=14;fillColor=#fff2cc;rounded=1;strokeColor=#d6b656;" parent="E1xS29n1x0knLpVKt5oC-1" vertex="1">
          <mxGeometry x="180" y="2070" width="120" height="60" as="geometry" />
        </mxCell>
        <mxCell id="qLfok4U49upxel9pCJrx-15" value="" style="edgeStyle=orthogonalEdgeStyle;rounded=0;orthogonalLoop=1;jettySize=auto;html=1;fontSize=12;" parent="E1xS29n1x0knLpVKt5oC-1" source="qLfok4U49upxel9pCJrx-6" target="qLfok4U49upxel9pCJrx-14" edge="1">
          <mxGeometry relative="1" as="geometry" />
        </mxCell>
        <mxCell id="qLfok4U49upxel9pCJrx-6" value="WorkModelGenerator" style="rounded=1;whiteSpace=wrap;html=1;fillColor=#ffe6cc;strokeColor=#d79b00;fontSize=14;" parent="E1xS29n1x0knLpVKt5oC-1" vertex="1">
          <mxGeometry x="500" y="1970" width="160" height="60" as="geometry" />
        </mxCell>
        <mxCell id="qLfok4U49upxel9pCJrx-10" value="" style="edgeStyle=orthogonalEdgeStyle;rounded=0;orthogonalLoop=1;jettySize=auto;html=1;fontSize=12;entryX=0;entryY=0.5;entryDx=0;entryDy=0;entryPerimeter=0;" parent="E1xS29n1x0knLpVKt5oC-1" source="qLfok4U49upxel9pCJrx-7" target="qLfok4U49upxel9pCJrx-11" edge="1">
          <mxGeometry relative="1" as="geometry">
            <Array as="points">
              <mxPoint x="480" y="2000" />
              <mxPoint x="480" y="2100" />
            </Array>
          </mxGeometry>
        </mxCell>
        <mxCell id="qLfok4U49upxel9pCJrx-7" value="&lt;span style=&quot;font-size: 12px; background-color: rgb(255, 255, 255);&quot;&gt;servicegraph.json&lt;/span&gt;" style="strokeWidth=1;html=1;shape=mxgraph.flowchart.document2;whiteSpace=wrap;size=0.25;align=center;fontSize=12;fillColor=#FFFFFF;" parent="E1xS29n1x0knLpVKt5oC-1" vertex="1">
          <mxGeometry x="353.54" y="1970" width="120" height="60" as="geometry" />
        </mxCell>
        <mxCell id="qLfok4U49upxel9pCJrx-12" value="" style="edgeStyle=orthogonalEdgeStyle;rounded=0;orthogonalLoop=1;jettySize=auto;html=1;fontSize=12;" parent="E1xS29n1x0knLpVKt5oC-1" source="qLfok4U49upxel9pCJrx-11" target="qLfok4U49upxel9pCJrx-6" edge="1">
          <mxGeometry relative="1" as="geometry" />
        </mxCell>
        <mxCell id="qLfok4U49upxel9pCJrx-11" value="WorkModel&lt;br style=&quot;font-size: 14px;&quot;&gt;Parameters" style="html=1;shape=mxgraph.flowchart.document2;whiteSpace=wrap;size=0.25;align=center;fontSize=14;fillColor=#ffe6cc;rounded=1;strokeColor=#d79b00;" parent="E1xS29n1x0knLpVKt5oC-1" vertex="1">
          <mxGeometry x="520" y="2070" width="120" height="60" as="geometry" />
        </mxCell>
        <mxCell id="qLfok4U49upxel9pCJrx-29" value="" style="edgeStyle=orthogonalEdgeStyle;rounded=0;orthogonalLoop=1;jettySize=auto;html=1;fontSize=12;" parent="E1xS29n1x0knLpVKt5oC-1" source="qLfok4U49upxel9pCJrx-14" target="qLfok4U49upxel9pCJrx-21" edge="1">
          <mxGeometry relative="1" as="geometry" />
        </mxCell>
        <mxCell id="qLfok4U49upxel9pCJrx-14" value="&lt;span style=&quot;font-size: 12px ; background-color: rgb(255 , 255 , 255)&quot;&gt;workmodel.json&lt;/span&gt;" style="strokeWidth=1;html=1;shape=mxgraph.flowchart.document2;whiteSpace=wrap;size=0.25;align=center;fontSize=12;fillColor=#FFFFFF;" parent="E1xS29n1x0knLpVKt5oC-1" vertex="1">
          <mxGeometry x="690" y="1970" width="120" height="60" as="geometry" />
        </mxCell>
        <mxCell id="qLfok4U49upxel9pCJrx-17" value="" style="edgeStyle=orthogonalEdgeStyle;rounded=0;orthogonalLoop=1;jettySize=auto;html=1;fontSize=12;" parent="E1xS29n1x0knLpVKt5oC-1" source="qLfok4U49upxel9pCJrx-16" target="TxRCmzSdzR-7Pf7vOkcd-6" edge="1">
          <mxGeometry relative="1" as="geometry" />
        </mxCell>
        <mxCell id="qLfok4U49upxel9pCJrx-16" value="&lt;span style=&quot;font-size: 12px ; background-color: rgb(255 , 255 , 255)&quot;&gt;workmodel.json&lt;/span&gt;" style="strokeWidth=1;html=1;shape=mxgraph.flowchart.document2;whiteSpace=wrap;size=0.25;align=center;fontSize=12;fillColor=#FFFFFF;" parent="E1xS29n1x0knLpVKt5oC-1" vertex="1">
          <mxGeometry x="205" y="1430" width="90" height="40" as="geometry" />
        </mxCell>
        <mxCell id="qLfok4U49upxel9pCJrx-19" value="K8s Deployer" style="rounded=1;whiteSpace=wrap;html=1;fillColor=#dae8fc;strokeColor=#6c8ebf;fontSize=14;" parent="E1xS29n1x0knLpVKt5oC-1" vertex="1">
          <mxGeometry x="850" y="1970" width="120" height="60" as="geometry" />
        </mxCell>
        <mxCell id="qLfok4U49upxel9pCJrx-30" style="edgeStyle=orthogonalEdgeStyle;rounded=0;orthogonalLoop=1;jettySize=auto;html=1;entryX=0;entryY=0.5;entryDx=0;entryDy=0;fontSize=12;" parent="E1xS29n1x0knLpVKt5oC-1" source="qLfok4U49upxel9pCJrx-21" target="qLfok4U49upxel9pCJrx-19" edge="1">
          <mxGeometry relative="1" as="geometry" />
        </mxCell>
        <mxCell id="qLfok4U49upxel9pCJrx-21" value="Deployer&lt;br&gt;Parameter" style="strokeWidth=1;html=1;shape=mxgraph.flowchart.document2;whiteSpace=wrap;size=0.25;align=center;fillColor=#FFF2CC;fontSize=14;" parent="E1xS29n1x0knLpVKt5oC-1" vertex="1">
          <mxGeometry x="690" y="2070" width="120" height="60" as="geometry" />
        </mxCell>
        <mxCell id="qLfok4U49upxel9pCJrx-22" value="" style="pointerEvents=1;shadow=0;dashed=0;html=1;strokeColor=none;labelPosition=center;verticalLabelPosition=bottom;verticalAlign=top;align=center;outlineConnect=0;shape=mxgraph.veeam2.server_cluster;fontSize=14;fillColor=#3399FF;" parent="E1xS29n1x0knLpVKt5oC-1" vertex="1">
          <mxGeometry x="850" y="2066" width="120" height="60" as="geometry" />
        </mxCell>
        <mxCell id="qLfok4U49upxel9pCJrx-23" value="" style="aspect=fixed;html=1;points=[];align=center;image;fontSize=12;image=img/lib/mscae/Kubernetes.svg;strokeColor=#FF0000;fillColor=#ffffff;gradientColor=none;" parent="E1xS29n1x0knLpVKt5oC-1" vertex="1">
          <mxGeometry x="980" y="2066" width="25.94" height="24.9" as="geometry" />
        </mxCell>
        <mxCell id="qLfok4U49upxel9pCJrx-24" value="" style="endArrow=classic;html=1;fontSize=14;exitX=0.5;exitY=1;exitDx=0;exitDy=0;" parent="E1xS29n1x0knLpVKt5oC-1" source="qLfok4U49upxel9pCJrx-19" edge="1">
          <mxGeometry width="50" height="50" relative="1" as="geometry">
            <mxPoint x="949" y="2096" as="sourcePoint" />
            <mxPoint x="869" y="2056" as="targetPoint" />
          </mxGeometry>
        </mxCell>
        <mxCell id="qLfok4U49upxel9pCJrx-25" value="" style="endArrow=classic;html=1;fontSize=14;exitX=0.5;exitY=1;exitDx=0;exitDy=0;" parent="E1xS29n1x0knLpVKt5oC-1" source="qLfok4U49upxel9pCJrx-19" target="qLfok4U49upxel9pCJrx-22" edge="1">
          <mxGeometry width="50" height="50" relative="1" as="geometry">
            <mxPoint x="920" y="2040" as="sourcePoint" />
            <mxPoint x="879" y="2066" as="targetPoint" />
          </mxGeometry>
        </mxCell>
        <mxCell id="qLfok4U49upxel9pCJrx-26" value="" style="endArrow=classic;html=1;fontSize=14;exitX=0.5;exitY=1;exitDx=0;exitDy=0;" parent="E1xS29n1x0knLpVKt5oC-1" source="qLfok4U49upxel9pCJrx-19" edge="1">
          <mxGeometry width="50" height="50" relative="1" as="geometry">
            <mxPoint x="920" y="2040" as="sourcePoint" />
            <mxPoint x="949" y="2056" as="targetPoint" />
          </mxGeometry>
        </mxCell>
        <mxCell id="qLfok4U49upxel9pCJrx-31" value="&lt;span style=&quot;font-size: 11px ; font-family: &amp;#34;droid sans mono&amp;#34; , monospace , monospace , &amp;#34;droid sans fallback&amp;#34;&quot;&gt;µ&lt;/span&gt;&lt;span style=&quot;font-size: 11px&quot;&gt;Bench&lt;/span&gt;&lt;span style=&quot;font-size: 11px ; font-family: &amp;#34;droid sans mono&amp;#34; , monospace , monospace , &amp;#34;droid sans fallback&amp;#34; ; color: rgb(212 , 212 , 212)&quot;&gt;&amp;nbsp;&lt;/span&gt;&lt;font face=&quot;helvetica&quot; style=&quot;font-size: 11px&quot;&gt;APP&amp;nbsp;&lt;br&gt;&lt;/font&gt;" style="shape=process;whiteSpace=wrap;html=1;backgroundOutline=1;labelBackgroundColor=none;strokeWidth=1;fontSize=11;align=center;fillColor=#D5E8D4;" parent="E1xS29n1x0knLpVKt5oC-1" vertex="1">
          <mxGeometry x="855" y="2081" width="110" height="30" as="geometry" />
        </mxCell>
        <mxCell id="rkSMMjT927RzHWf64XXE-0" value="&lt;span style=&quot;font-size: 11px ; font-family: &amp;#34;droid sans mono&amp;#34; , monospace , monospace , &amp;#34;droid sans fallback&amp;#34;&quot;&gt;µ&lt;/span&gt;&lt;span style=&quot;font-size: 11px&quot;&gt;Bench&lt;/span&gt;&lt;span style=&quot;font-size: 11px ; font-family: &amp;#34;droid sans mono&amp;#34; , monospace , monospace , &amp;#34;droid sans fallback&amp;#34; ; color: rgb(212 , 212 , 212)&quot;&gt;&amp;nbsp;&lt;/span&gt;&lt;font face=&quot;helvetica&quot; style=&quot;font-size: 11px&quot;&gt;APP&amp;nbsp;&lt;br&gt;&lt;/font&gt;" style="shape=process;whiteSpace=wrap;html=1;backgroundOutline=1;labelBackgroundColor=none;strokeWidth=1;fontSize=11;align=center;fillColor=#D5E8D4;" parent="E1xS29n1x0knLpVKt5oC-1" vertex="1">
          <mxGeometry x="370.5" y="1444.9" width="101" height="27.55" as="geometry" />
        </mxCell>
      </root>
    </mxGraphModel>
  </diagram>
</mxfile>
